<?xml version="1.0" encoding="UTF-8"?>
<!DOCTYPE svg PUBLIC "-//W3C//DTD SVG 1.1//EN" "http://www.w3.org/Graphics/SVG/1.1/DTD/svg11.dtd">
<!-- Creator: CorelDRAW -->
<svg xmlns="http://www.w3.org/2000/svg" xml:space="preserve" width="1000mm" height="1000mm" version="1.1" style="shape-rendering:geometricPrecision; text-rendering:geometricPrecision; image-rendering:optimizeQuality; fill-rule:evenodd; clip-rule:evenodd"
viewBox="0 0 100000 100000"
 xmlns:xlink="http://www.w3.org/1999/xlink"
 xmlns:xodm="http://www.corel.com/coreldraw/odm/2003">
 <defs>
  <style type="text/css">
   <![CDATA[
    .str0 {stroke:#2755A5;stroke-width:20;stroke-miterlimit:22.9256}
    .str1 {stroke:#A6DDEB;stroke-width:20;stroke-miterlimit:22.9256}
    .fil0 {fill:#2755A5}
    .fil1 {fill:#A6DDEB}
   ]]>
  </style>
 </defs>
 <g id="Layer_x0020_1">
  <metadata id="CorelCorpID_0Corel-Layer"/>
  <path class="fil0 str0" d="M65082.83 37093.66c2999.26,3497.68 4811.97,8042.69 4811.97,13011.54 0,11045.7 -8954.31,20000 -20000,20000 -4968.85,0 -9513.87,-1812.71 -13011.55,-4811.97l16740.78 -16740.77 2292.27 0c353.57,0 1000.7,37.78 1320.02,-7.76 185.8,-26.5 342.66,-144.98 413.66,-248.11 126.2,-183.32 128.05,-288.03 127.48,-539.01 -1.01,-446.85 0.85,-893.76 -0.33,-1340.6l512.89 -6.34 0.68 2840.21c-36.56,72.7 -72.94,70.24 -139,102.82 -327.1,161.33 -770.23,426.37 -1136.09,612.27 -420.32,213.56 -881.63,459.69 -1292.8,691.6 -803.4,453.14 -1756.2,937.22 -2582.98,1385.13 -430.89,233.43 -858.16,454.27 -1288.52,694.25l-1293.49 691.29c-184.35,94.38 -1203.12,620.44 -1267.4,716.85 -96.22,144.3 -42.98,1670.62 -44.99,1962.38 -648.22,0 -612.57,-67.81 -612.21,396.41 0.55,741.46 -20,5923.24 2.43,6080.78 26.52,186.36 203.31,141.77 368.93,141.54l1002.66 0c178.06,0.14 355.95,41.84 386.37,-121.93 26.84,-144.45 4.03,-5368.91 4.78,-6100.39 0.46,-455 42.78,-402.4 -634.97,-395.66l-0.22 -1677.32c104.67,-32.51 279.88,-137.83 385.17,-196.35l1138.6 -610.64c496.98,-277 1010.55,-539.94 1512.43,-812.39 494.58,-268.48 1010.06,-552.09 1513.63,-812.02 504.61,-260.48 1005.83,-557.73 1514.01,-811.36 257.75,-128.65 504.95,-266.23 748.72,-402.89l1891.02 -1011.14c122.06,-65.05 293.18,-131.24 330.26,-265.35 32.74,-118.41 19.5,-3374.38 -8.01,-3450.47 -91.26,-252.46 -577.61,-141.96 -1006.41,-166.66 -47.37,-440.27 26.41,-1061.57 -12.93,-1484.8l7313.14 -7313.14z"/>
  <path class="fil1 str1" d="M49894.8 30105.2c5071.86,0 9702.05,1888.78 13227.45,5000.34l-8648.3 8648.3 -11762.39 0c-318.04,0 -1000.24,-52.16 -1243.65,72.04 -360.51,183.95 -346.53,486.38 -346.53,966.51 0,405.85 -29.8,3094.21 24.95,3293.48 167.42,609.41 915.56,466.59 1522.57,466.59l7006.43 0 -14780.19 14780.19c-3111.57,-3525.41 -5000.34,-8155.57 -5000.34,-13227.45 0,-11045.7 8954.31,-20000 20000,-20000z"/>
 </g>
</svg>
