<?xml version="1.0" encoding="UTF-8"?>
<!DOCTYPE svg PUBLIC "-//W3C//DTD SVG 1.1//EN" "http://www.w3.org/Graphics/SVG/1.1/DTD/svg11.dtd">
<!-- Creator: CorelDRAW -->
<svg xmlns="http://www.w3.org/2000/svg" xml:space="preserve" width="1000mm" height="1000mm" version="1.1" style="shape-rendering:geometricPrecision; text-rendering:geometricPrecision; image-rendering:optimizeQuality; fill-rule:evenodd; clip-rule:evenodd"
viewBox="0 0 100000 100000"
 xmlns:xlink="http://www.w3.org/1999/xlink"
 xmlns:xodm="http://www.corel.com/coreldraw/odm/2003">
 <defs>
  <style type="text/css">
   <![CDATA[
    .str1 {stroke:#00AFEF;stroke-width:20;stroke-miterlimit:22.9256}
    .str2 {stroke:#5B1436;stroke-width:20;stroke-miterlimit:22.9256}
    .str0 {stroke:#F79738;stroke-width:20;stroke-miterlimit:22.9256}
    .fil50 {fill:#00AFEF}
    .fil51 {fill:#5B1436}
    .fil30 {fill:#F79738}
    .fil23 {fill:#1E1724;fill-rule:nonzero}
    .fil10 {fill:#212A60;fill-rule:nonzero}
    .fil60 {fill:#212A60;fill-rule:nonzero}
    .fil28 {fill:#214287;fill-rule:nonzero}
    .fil8 {fill:#263B7F;fill-rule:nonzero}
    .fil58 {fill:#263B7F;fill-rule:nonzero}
    .fil24 {fill:#272760;fill-rule:nonzero}
    .fil59 {fill:#272B6A;fill-rule:nonzero}
    .fil27 {fill:#2755A5;fill-rule:nonzero}
    .fil36 {fill:#2B91BE;fill-rule:nonzero}
    .fil65 {fill:#3485BA;fill-rule:nonzero}
    .fil48 {fill:#3C1515;fill-rule:nonzero}
    .fil57 {fill:#449FA1;fill-rule:nonzero}
    .fil49 {fill:#461714;fill-rule:nonzero}
    .fil38 {fill:#4B4063;fill-rule:nonzero}
    .fil18 {fill:#4B66AF;fill-rule:nonzero}
    .fil47 {fill:#592019;fill-rule:nonzero}
    .fil42 {fill:#5B1436;fill-rule:nonzero}
    .fil53 {fill:#5B1511;fill-rule:nonzero}
    .fil17 {fill:#5D2610;fill-rule:nonzero}
    .fil15 {fill:#66C8CE;fill-rule:nonzero}
    .fil12 {fill:#66C8CE;fill-rule:nonzero}
    .fil64 {fill:#68B4D6;fill-rule:nonzero}
    .fil43 {fill:#6C5964;fill-rule:nonzero}
    .fil52 {fill:#6E1D14;fill-rule:nonzero}
    .fil56 {fill:#6E2B28;fill-rule:nonzero}
    .fil33 {fill:#6E2C27;fill-rule:nonzero}
    .fil19 {fill:#723316;fill-rule:nonzero}
    .fil54 {fill:#7CC2C7;fill-rule:nonzero}
    .fil9 {fill:#7D322E;fill-rule:nonzero}
    .fil31 {fill:#844741;fill-rule:nonzero}
    .fil16 {fill:#8E3E36;fill-rule:nonzero}
    .fil61 {fill:#90584D;fill-rule:nonzero}
    .fil25 {fill:#914037;fill-rule:nonzero}
    .fil63 {fill:#97D8E9;fill-rule:nonzero}
    .fil21 {fill:#983222;fill-rule:nonzero}
    .fil29 {fill:#9D5E55;fill-rule:nonzero}
    .fil62 {fill:#A1D0C0;fill-rule:nonzero}
    .fil55 {fill:#A45B52;fill-rule:nonzero}
    .fil20 {fill:#A6DDEB;fill-rule:nonzero}
    .fil11 {fill:#A6DDEB;fill-rule:nonzero}
    .fil37 {fill:#AB3424;fill-rule:nonzero}
    .fil66 {fill:#BDE4E8;fill-rule:nonzero}
    .fil26 {fill:#BF3B27;fill-rule:nonzero}
    .fil7 {fill:#C54127;fill-rule:nonzero}
    .fil32 {fill:#C72F47;fill-rule:nonzero}
    .fil35 {fill:#CE8686;fill-rule:nonzero}
    .fil6 {fill:#D64E27;fill-rule:nonzero}
    .fil4 {fill:#DC8427;fill-rule:nonzero}
    .fil3 {fill:#E2A657;fill-rule:nonzero}
    .fil0 {fill:#E5F7FC;fill-rule:nonzero}
    .fil41 {fill:#ED7D27;fill-rule:nonzero}
    .fil40 {fill:#ED8222;fill-rule:nonzero}
    .fil45 {fill:#EDD260;fill-rule:nonzero}
    .fil34 {fill:#EE7123;fill-rule:nonzero}
    .fil13 {fill:#F1B5AB;fill-rule:nonzero}
    .fil14 {fill:#F5948D;fill-rule:nonzero}
    .fil46 {fill:#F5E38F;fill-rule:nonzero}
    .fil39 {fill:#F79738;fill-rule:nonzero}
    .fil2 {fill:#F7981D;fill-rule:nonzero}
    .fil44 {fill:#F7991C;fill-rule:nonzero}
    .fil5 {fill:#FFC40C;fill-rule:nonzero}
    .fil22 {fill:white;fill-rule:nonzero}
    .fil1 {fill:#E5F7FC;fill-rule:nonzero;fill-opacity:0.749020}
   ]]>
  </style>
 </defs>
 <g id="Layer_x0020_1">
  <metadata id="CorelCorpID_0Corel-Layer"/>
  <g id="_1695172445696">
   <g id="freepik--background-simple--inject-1">
    <path class="fil0" d="M66267 21243.78c0,0 -7031.53,-6763.54 -17417.29,-4893.54 -10385.75,1870 -15552.95,9906.82 -21987.75,15203.3 -3369.45,2766.98 -7962.69,3506.29 -11820.56,5532.08 -12335.49,6459.5 -12557.86,23316.11 -4414.6,30364.73 7042.95,6100.37 16562.04,7472.4 29484.86,4488.8 12922.81,-2983.6 22128.38,-4654.14 31181.9,-15537.73 9053.52,-10883.58 3557.64,-26062.25 -5026.56,-35157.64z"/>
    <path class="fil1" d="M66267 21243.78c0,0 -7031.53,-6763.54 -17417.29,-4893.54 -10385.75,1870 -15552.95,9906.82 -21987.75,15203.3 -3369.45,2766.98 -7962.69,3506.29 -11820.56,5532.08 -12335.49,6459.5 -12557.86,23316.11 -4414.6,30364.73 7042.95,6100.37 16562.04,7472.4 29484.86,4488.8 12922.81,-2983.6 22128.38,-4654.14 31181.9,-15537.73 9053.52,-10883.58 3557.64,-26062.25 -5026.56,-35157.64z"/>
   </g>
   <g>
    <path class="fil2" d="M59492.52 61760.82c0,0 -400.06,753.96 -2109.45,970.71 -471.1,59.01 -875.17,76.03 -1214.4,69.98 -889.23,-16.87 -1326.67,-194.66 -1326.67,-194.66l-271.74 -1336.35 -1345.36 -6624.4 0 -1.13c1.06,-8.17 18.69,-109.85 537,-289.3 442.49,-152.59 1250.1,-363.21 2727.84,-618.62l2517.61 6727.51 485.17 1296.26z"/>
    <path class="fil3" d="M56489.74 53737.05c-1477.74,255.41 -2285.35,466.03 -2727.84,618.62 -518.31,179.45 -535.94,281.13 -537,289.3l-292.47 -1462.46c77.39,-78.84 156.6,-150.33 238,-214.86l8.33 29.96c0,0 57.11,-29.96 155.01,-78.3 371.76,-180.36 1326.97,-603.65 1944.3,-506.81l-14.37 -39.49c452.33,30.72 763.8,132.39 763.8,132.39l462.24 1231.65z"/>
    <path class="fil4" d="M56168.67 62801.51c-889.23,-16.87 -1326.67,-194.66 -1326.67,-194.66l-271.74 -1336.35 -1345.36 -6624.4 0 -1.13 -292.47 -1462.46c77.39,-78.84 156.6,-150.33 238,-214.86l8.33 29.96c0,0 57.11,-29.96 155.01,-78.3 96.38,307.53 246.1,812.22 428.13,1436.36 791.86,2714.91 2192.52,7684.01 2406.77,8445.84z"/>
    <path class="fil5" d="M55278.07 52412.5c-360.03,-56.82 -836.95,64 -1244.5,211.15 -474.5,169.99 -854.81,373.96 -854.81,373.96l-8.33 -29.96 -1619.74 -6216.63 320.54 -85.41 1122.78 -302.46 2269.69 6009.86 14.37 39.49z"/>
    <path class="fil2" d="M54033.57 52623.65c-474.5,169.99 -854.81,373.96 -854.81,373.96l-8.33 -29.96 -1619.74 -6216.63 320.54 -85.41 2162.34 5958.04z"/>
    <path class="fil6" d="M60447.2 62899.93c-46.46,16.27 -693.07,801.18 -3187.98,970.72 -43.5,2.72 -85.72,5.07 -127.33,8.25 -2387.86,143.28 -2952.61,-344.08 -2952.61,-344.08 0,0 -168.63,-835.07 -230.82,-1404.28 -58.18,-536.69 239.37,-759.27 621.8,-860.04l271.74 1336.35c0,0 398.17,162.36 1208.73,190.35 362.15,14.14 805.48,0 1332.34,-65.67 1709.39,-216.75 2109.45,-970.71 2109.45,-970.71l-485.17 -1296.26c962.92,-311.77 1485.99,2419.64 1439.85,2435.37z"/>
    <path class="fil7" d="M57131.89 63878.9c-2387.86,143.28 -2952.61,-344.08 -2952.61,-344.08 0,0 -168.63,-835.07 -230.82,-1404.28 -58.18,-536.69 239.37,-759.27 621.8,-860.04l271.74 1336.35c0,0 398.17,162.36 1208.73,190.35 311.16,423.28 674.68,814.26 1081.16,1081.7z"/>
    <path class="fil8" d="M50480.71 63662.45l-175.29 176.42 -145.48 146.77c0,0 -1385.67,-1639.72 -2286.71,-3003.08 -900.73,-1362.44 -1155.39,-3117.99 -646.69,-4226.77 0,0 -1617.1,-5428.47 -1871.45,-6260.28 -254.04,-831.66 -254.04,-623.62 -254.04,-623.62l-439.02 23.08c0,0 -969.88,1917.07 -1663.02,4088.71 -693.07,2171.64 -2956.86,9632.55 -2956.86,9632.55l-121.95 45.39 -247.47 93.2c0,0 -508.39,-3210.9 -508.39,-4873.99 0,-1663.25 346.72,-2356.17 1455.35,-3465.33 0,0 138.53,-3927.19 785.44,-6190.45 323.5,-1132.23 623.77,-1963.82 843.39,-2512.53 219.4,-547.96 357.62,-814.19 357.62,-814.19 2.11,-1.66 387.27,-331.52 758.8,-921.62l38.66 -60.59c88.06,-143.9 173.78,-301.86 253.29,-473.75 16.8,-34.95 34.2,-73.16 51.82,-110.98l14.68 -33.97c13.85,-30.11 27.69,-61.05 41.61,-93.36l15.21 -32.3c18.15,-42.75 36.31,-85.41 56.28,-128.61l10.97 -26.71c16.27,-37.9 33.37,-76.11 49.93,-114.77l16.8 -38.43 23.45 -57.42 28.07 -66.73 10.89 -25.04c20.36,-49.93 41.69,-100.62 63.02,-152.67l13.85 -32.83c17.4,-42.14 34.72,-85.94 52.58,-129.75l14.98 -37.6c44.33,-108.33 87.53,-219.92 132.09,-332.57l12.86 -34.95c18.38,-47.51 36.77,-95.25 55.23,-144.35l11.42 -30.19c21.94,-59.54 44.11,-117.41 65.44,-176.12l2.95 -5.9c20.28,-55.76 39.49,-110.45 58.94,-164.62l13.92 -38.21c18.68,-50.46 36.01,-101.37 53.11,-152.14l7.71 -20.27c20.58,-58.41 39.8,-115.83 59.01,-173.17l9.61 -28.6c15.43,-46.98 31.17,-93.66 45.85,-141.17l12.86 -38.74c17.85,-53.63 34.42,-107.27 50.16,-160.91l1.06 -1.59c136.4,-95.55 371.23,-250.87 468.37,-277.27 0,0 -147.83,-230.37 -273.57,-466.03l0 -2.12c13.62,-65.66 25.12,-129.74 34.2,-189.74l1.89 -16.34c3.71,-24.28 7.19,-49.32 10.37,-72.32 3.78,-29.58 6.12,-58.41 8.01,-84.81 64.31,-840.44 42.45,-1619.22 38.97,-1722.03l0 -10.9c0,0 1878.41,-261.84 2848.82,-200.18 0,0 193.75,436.9 456.64,1014.44 261.77,575.96 594.57,1294.44 871.91,1854.05 -1.06,9.61 -51.52,1418.59 -358.67,3106.88 -30.49,165.23 -59.31,348.84 -85.94,547.96l-0.53 7.71 -9.38 63.55c-50.69,374.41 -96.31,798.23 -136.11,1246.4 -154.25,1755.55 -215.91,3909.11 -106.74,5110.64 153.72,1693.36 978.96,9286.43 1999.22,12034.86z"/>
    <path class="fil9" d="M44564.36 49814.1c0,0 848.91,-358.23 1218.55,-393.18l-1218.55 393.18z"/>
    <path class="fil10" d="M48733.72 45207l-9.38 63.55c-50.69,374.41 -96.31,798.23 -136.11,1246.4 -470.03,-48.87 -1497.79,-374.26 -2293.37,-835.67 -931.22,-539.41 -1822.04,-1336.88 -2357.22,-1875.46l28.07 -66.73 10.89 -25.04c20.36,-49.93 41.69,-100.62 63.02,-152.67l13.85 -32.83c17.4,-42.14 34.72,-85.94 52.58,-129.75l14.98 -37.6c44.33,-108.33 87.53,-219.92 132.09,-332.57l12.86 -34.95c18.38,-47.51 36.77,-95.25 55.23,-144.35l11.42 -30.19c21.94,-59.54 44.11,-117.41 65.44,-176.12l2.95 -5.9c20.28,-55.76 39.49,-110.45 58.94,-164.62l13.92 -38.21c18.68,-50.46 36.01,-101.37 53.11,-152.14l7.71 -20.27c20.58,-58.41 39.8,-115.83 59.01,-173.17l9.61 -28.6c15.43,-46.98 31.17,-93.66 45.85,-141.17l12.86 -38.74c17.85,-53.63 34.42,-107.27 50.16,-160.91l1.06 -1.59c136.4,-95.55 371.23,-250.87 468.37,-277.27 0,0 -147.83,-230.37 -273.57,-466.03l0 -2.12c13.62,-65.66 25.12,-129.74 34.2,-189.74l1.89 -16.34c3.71,-24.28 7.19,-49.32 10.37,-72.32 3.78,-29.58 6.12,-58.41 8.01,-84.81 64.31,-840.44 42.45,-1619.22 38.97,-1722.03 143.28,569.29 269.02,2553.39 269.02,2553.39 0,0 788.16,1074.74 1578.9,1958.37 790.81,883.94 1497.56,1865.1 1497.56,1865.1l386.75 -56.9z"/>
    <path class="fil10" d="M50305.42 63838.87l-145.48 146.77c0,0 -1385.67,-1639.72 -2286.71,-3003.08 -900.73,-1362.44 -1155.39,-3117.99 -646.69,-4226.77 0,0 -1617.1,-5428.47 -1871.45,-6260.28 -254.04,-831.66 -254.04,-623.62 -254.04,-623.62l-439.02 23.08c0,0 -969.88,1917.07 -1663.02,4088.71 -693.07,2171.64 -2956.86,9632.55 -2956.86,9632.55l-121.95 45.39c54.7,-389.92 240.2,-1608.78 584.2,-2679.06 138.52,-430.92 184.67,-584.72 184.67,-598.27 -17.63,23.99 -159.03,431.99 -182.02,496.82 54.16,-183.53 935.23,-3156.95 1360.1,-4657.17 438.79,-1546.82 2319.55,-6236.9 2319.55,-6236.9 0,0 1468.97,-692.54 1595.69,-900.28 0,0 213.26,1052.04 678.99,3286.25 464.66,2234.13 1088.66,4798.12 1088.66,4798.12 0,0 -277.35,1109.16 323.19,2702.8 492.43,1308.13 1931.21,3293.37 2432.19,3964.94z"/>
    <path class="fil11" d="M50956.35 41347.53l-0.53 1.05c-2.95,3.71 -175.9,199.13 -564.45,495.61 -115.9,87.31 -219.4,194.58 -308.82,301.86 -208.73,248.75 -339.23,498.79 -349.6,517.25 -143.89,-182.03 -282.41,-461.49 -385.15,-695.49 -102.21,-234.6 -168.94,-423.36 -168.94,-423.36 -38.96,-78.15 -78.75,-158.27 -119.3,-241.79l0 -1.06c-539.64,-1113.47 -1209.25,-2625.64 -1209.25,-2625.64 -970.41,-61.66 -2848.82,200.18 -2848.82,200.18 0,0 30.41,831.59 -38.97,1732.93 -1.89,26.4 -4.23,55.23 -8.01,84.81 -3.18,23 -6.66,48.04 -10.37,72.32l-1.89 16.34c-9.08,60 -20.58,124.08 -34.2,189.74l0 2.12c125.74,235.66 273.57,466.03 273.57,466.03 -97.14,26.4 -331.97,181.72 -468.37,277.27l-1.06 1.59c-15.74,53.64 -32.31,107.28 -50.16,160.91l-12.86 38.74c-14.68,47.51 -30.42,94.19 -45.85,141.17l-9.61 28.6c-19.21,57.34 -38.43,114.76 -59.01,173.17l-7.71 20.27c-17.1,50.77 -34.43,101.68 -53.11,152.14l-13.92 38.21c-13.09,36.01 -26.18,72.02 -38.66,107.8l-20.28 56.82 -2.95 5.9c-21.33,58.71 -43.5,116.58 -65.44,176.12l-11.42 30.19c-18.46,49.1 -36.85,96.84 -55.23,144.35l-12.86 34.95c-44.56,112.65 -87.76,224.24 -132.09,332.57l-14.98 37.6c-17.86,43.81 -35.18,87.61 -52.58,129.75l-13.85 32.83c-21.33,52.05 -42.66,102.74 -63.02,152.67l-10.89 25.04c-17.63,41.69 -35.25,83.6 -51.52,124.15l-16.8 38.43c-16.56,38.66 -33.66,76.87 -49.93,114.77l-10.97 26.71c-19.97,43.2 -38.13,85.86 -56.28,128.61l-2.12 4.76 -13.09 27.54c-13.92,32.31 -27.76,63.25 -41.61,93.36l-14.68 33.97c-17.62,37.82 -35.02,76.03 -51.82,110.98 -212.43,460.13 -474.8,824.7 -684.82,1072.62 -208.42,248.75 -364.88,382.66 -365.93,383.34l590.62 -2602.79 172.19 -759.04c-585.03,-756.92 -1178.08,-1776.96 -1329.16,-2966.99 -89.35,-712.05 -116.35,-1322.2 23.23,-1863.2 94.49,-364.28 265.31,-697.91 544.17,-1009.07 413.15,-461.49 810.33,-705.4 1221.89,-835.67 57.04,-18.09 114.16,-33.9 171.58,-46.91 118.25,-29.66 238.31,-49.93 361.1,-63.55 109.92,-14.15 221.81,-21.86 335.75,-27.76 708.35,-35.79 1911.7,-8.78 2910.17,151.83 145.41,23 286.88,48.35 421.7,78.23 114.46,24.81 224.16,52.05 329.02,81.1 49.4,13.62 98.8,31.02 146.01,49.17 965.34,359.74 1459.13,1444.39 1691.01,2214.92 172.42,577.54 760.93,3048.93 760.93,3048.93z"/>
    <path class="fil12" d="M44421.3 42580.3l-20.28 56.82 -2.95 5.9c-21.33,58.71 -43.5,116.58 -65.44,176.12l-11.42 30.19c-18.46,49.1 -36.85,96.84 -55.23,144.35l-12.86 34.95c-44.56,112.65 -87.76,224.24 -132.09,332.57l-14.98 37.6c-17.86,43.81 -35.18,87.61 -52.58,129.75l-13.85 32.83c-21.33,52.05 -42.66,102.74 -63.02,152.67l-10.89 25.04c-17.63,41.69 -35.25,83.6 -51.52,124.15l-16.8 38.43c-16.56,38.66 -33.66,76.87 -49.93,114.77l-10.97 26.71c-19.97,43.2 -38.13,85.86 -56.28,128.61l-2.12 4.76c-170,-269.02 -386.21,-604.77 -581.33,-880.98l172.19 -759.04c-585.03,-756.92 -1178.08,-1776.96 -1329.16,-2966.99 -89.35,-712.05 -116.35,-1322.2 23.23,-1863.2l150.55 876.75c0,0 431.83,1663.02 801.17,2328.09 369.65,664.85 1031.31,1446.58 1031.31,1446.58l375.25 222.57z"/>
    <path class="fil12" d="M50082.55 42146.05c-208.73,248.75 -339.23,498.79 -349.6,517.25 -143.89,-182.03 -282.41,-461.49 -385.15,-695.49 -102.21,-234.6 -168.94,-423.36 -168.94,-423.36 -38.96,-78.15 -78.75,-158.27 -119.3,-241.79l0 -1.06 217.27 -753.66 160.62 591.69c0,0 379.02,625.58 645.1,1006.42z"/>
    <path class="fil12" d="M48504.41 36083.68c-509.98,140.12 -1260.54,314.35 -2077.23,389.92 -1374.17,128.62 -2045.9,-230.89 -2426.52,-658.94 118.25,-29.66 238.31,-49.93 361.1,-63.55 109.92,-14.15 221.81,-21.86 335.75,-27.76 708.35,-35.79 1911.7,-8.78 2910.17,151.83 145.41,23 286.88,48.35 421.7,78.23 114.46,24.81 224.16,52.05 329.02,81.1 49.4,13.62 98.8,31.02 146.01,49.17z"/>
    <path class="fil13" d="M47618.88 32905.01c0,0 -423.05,388.34 -1408.67,581.25 -544.71,106.22 -977.83,99.56 -1287.48,31.78 -251.4,-54.17 -420.33,-149.19 -498.78,-255.41 0,0 -166.29,-523.9 -222.05,-1231.95 -55,-708.34 -36.54,-1116.42 0,-1178.08 7.49,-12.03 34.42,-36.84 77.09,-69.68 169.77,-133.37 596.76,-399.22 1053.48,-523.37 569.75,-154.26 1008.54,-145.93 1101.14,-92.3 86.78,50.47 172.72,188.16 182.33,205.48 162.5,307.46 377.59,825.53 495.08,1203.95 161.67,518.84 507.86,1328.33 507.86,1328.33z"/>
    <path class="fil13" d="M44200.31 33239.71c-1.89,23.98 -13.09,53.64 -30.41,85.94 -59.31,108.87 -195.94,246.56 -329.4,282.57 -51.52,14.98 -103.26,13.92 -148.35,-10.14 -184.67,-98.43 -350.43,-1012.02 -192.16,-1229l30.41 -30.71c88.59,-58.94 182.02,-40.25 269.02,20.8 117.95,82.01 225.22,241.87 297.32,395.07 63.78,137.16 114.77,346.64 103.57,485.47z"/>
    <path class="fil14" d="M44096.74 32754.24c63.78,137.16 114.77,346.64 103.57,485.47 -1.89,23.98 -13.09,53.64 -30.41,85.94 -59.31,108.87 -195.94,246.56 -329.4,282.57 -60.29,-373.36 -169.99,-888.71 -340.51,-1239.14l30.41 -30.71c88.59,-58.94 182.02,-40.25 269.02,20.8 117.95,82.01 225.22,241.87 297.32,395.07z"/>
    <path class="fil14" d="M44922.73 33518.04c-251.4,-54.17 -420.33,-149.19 -498.78,-255.41 0,0 -166.29,-523.9 -222.05,-1231.95 -55,-708.34 -36.54,-1116.42 0,-1178.08 7.49,-12.03 34.42,-36.84 77.09,-69.68 47.82,618.7 198.59,1997.42 643.74,2735.12z"/>
    <path class="fil15" d="M50791.42 46854.22c0,0 526.86,1695.55 1312.3,2018.74l193.97 744.36c0,0 -1569.51,-746.25 -1899.67,-2609.83l393.4 -153.27z"/>
    <path class="fil15" d="M53724.22 46268.43c0,0 516.72,1724.3 86.25,2257.05l260.47 690.19c0,0 723.02,-1468.97 77.17,-3041.73l-423.89 94.49z"/>
    <polygon class="fil16" points="44039.62,43561.91 44053.24,43528.55 "/>
    <polygon class="fil16" points="43708.41,44330.78 43723.39,44297.42 "/>
    <polygon class="fil16" points="43965.71,43739.09 43976.07,43714.58 "/>
    <polygon class="fil16" points="43896.87,43901.67 43913.66,43862.71 "/>
    <polygon class="fil16" points="43765,44204.59 43780.21,44171.23 "/>
    <polygon class="fil16" points="43836.49,44042.54 43847.99,44016.44 "/>
    <polygon class="fil16" points="44649.47,41919.47 44662.03,41880.2 "/>
    <polygon class="fil16" points="44105.82,43398.8 44121.03,43361.73 "/>
    <polygon class="fil16" points="44593.71,42089.24 44603.32,42060.11 "/>
    <path class="fil16" d="M44954.51 40693.35c3.25,-29.05 5.9,-57.35 8.01,-84.28 -2.11,26.93 -4.76,55.23 -8.01,84.28z"/>
    <polygon class="fil16" points="44942.25,40782.54 44944.14,40766.2 "/>
    <polygon class="fil16" points="44252.59,43028.63 44265.98,42993.68 "/>
    <polygon class="fil16" points="44527.52,42282.15 44535.01,42261.35 "/>
    <polygon class="fil16" points="44321.21,42849.33 44332.63,42818.61 "/>
    <polygon class="fil16" points="44460.26,42472.5 44473.88,42433.76 "/>
    <polygon class="fil16" points="44398.3,42643.02 44400.49,42636.59 "/>
    <path class="fil13" d="M54925.22 45454.17c33.9,-156.91 51.3,-294.68 51.3,-294.68 0,0 -29.89,137.77 -51.3,294.68z"/>
    <path class="fil17" d="M44492.26 31774.75c46.15,-115.07 269.33,-300.27 461.72,-431.08 192.69,-130.73 516.18,-154.26 516.18,-154.26 0,0 -115.29,254.35 -488.95,439.02 -373.65,184.98 -488.95,146.32 -488.95,146.32z"/>
    <path class="fil17" d="M46226.02 31052.78c-76.11,52.28 361.85,261.84 777.64,246.1 0,0 -431.22,-484.71 -777.64,-246.1z"/>
    <path class="fil13" d="M46617.23 35803.69l-107.81 330.38c-198.59,87.3 -636.02,71.57 -997.12,31.02 -281.81,-32.31 -517.77,-80.35 -557.79,-107.58 -93.44,-61.43 -131.26,-433.2 -131.26,-433.2 0,0 191.32,13.09 592.97,88.07 62.19,10.97 128.39,23.52 200.48,38.73 539.87,108.34 1000.53,52.58 1000.53,52.58z"/>
    <path class="fil14" d="M45512.3 36165.09c-281.81,-32.31 -517.77,-80.35 -557.79,-107.58 -93.44,-61.43 -131.26,-433.2 -131.26,-433.2 0,0 191.32,13.09 592.97,88.07 23,158.04 58.18,312.29 96.08,452.71z"/>
    <path class="fil6" d="M39672.73 63754.82l0 315.4 1955.5 0c0,0 -1123.83,-954.37 -1955.5,-315.4z"/>
    <path class="fil6" d="M50159.94 63985.64l1956.03 0c0,0 -1417.15,-1039.25 -1956.03,0z"/>
    <path class="fil18" d="M45388.46 38825.98l-386.97 50.16c0,0 -711.53,-2171.72 -1172.41,-3014.57 174.53,-55.23 350.96,-89.12 532.68,-110.46 226.35,509.76 929.03,2153.26 1026.7,3074.87z"/>
    <path class="fil18" d="M48029.38 35953.41l-179.07 2722.55 -323.5 -9.38c0,0 46.15,-1983.49 80.87,-2791.4 145.41,23 286.88,48.35 421.7,78.23z"/>
    <path class="fil19" d="M48104.05 34410.22c-7.41,538.58 -408.3,1132.46 -1486.82,1393.47 -1077.92,261.84 -1809.27,-123.01 -2109.46,-400.36 -300.27,-276.74 -284.53,-784.91 -305.87,-1408.9 -9.91,-278.86 -11.72,-485.7 -32,-668.78 17.32,-32.3 28.52,-61.96 30.41,-85.94 11.2,-138.83 -39.79,-348.31 -103.57,-485.47 -72.1,-153.2 -179.37,-313.06 -297.32,-395.07 -169.46,-305.03 -321.9,-596.76 -363.21,-990.38 -26.71,-257 46.15,-472.91 137.69,-627.7 94.19,-161.52 207.67,-257.83 244.74,-265.85 73.16,-14.98 19.22,-254.35 193.22,-584.73 172.72,-331.51 357.39,-731.87 850.88,-1079.05 492.35,-346.19 777.19,-253.82 952.78,-115.29 161.75,128.91 555.38,713.64 678.39,982.13l23.75 57.35c85.19,231.42 99.57,639.5 99.57,639.5l-1.29 -2.42c-9.61,-17.32 -95.55,-155.01 -182.33,-205.48 -92.6,-53.63 -531.39,-61.96 -1101.14,92.3 -570.35,154.87 -1093.5,531.17 -1130.57,593.05 -36.54,61.66 -55,469.74 0,1178.08 16.04,205.48 41.61,394.69 69.38,560.98 68.61,407.01 152.67,670.97 152.67,670.97 176.65,238.61 800.11,415.79 1786.26,223.63 985.62,-192.91 1408.67,-581.25 1408.67,-581.25 238.61,166.29 476.39,911.71 484.64,1449.23l0.53 55.98z"/>
    <path class="fil20" d="M45977.27 41965.39c-212.74,0 -421.47,-9.61 -622.93,-29.35l-42.22 -1392.41 -2.12 -68.01 -10.89 -375.55c249.2,-3.48 1755.55,-30.72 2578.66,-233.54l27.76 265.31 7.49 68.85 154.49 1481.53c-163.87,46.98 -1037.9,283.17 -2090.24,283.17zm2003.24 -1784.98l-7.19 -69.9 -30.94 -290.66 -14.45 -25.12 -28.83 -4.76c-875.08,227.41 -2618.68,241.48 -2636.31,241.48l-24.81 9.91 -10.44 25.88 13.09 411.86 1.89 68.84 43.5 1420.93 31.47 32.83c212.44,21.34 433.95,32.76 659.78,32.76 1173.47,0 2127.91,-291.11 2137.22,-293.84l24.06 -37.07 -158.04 -1523.14z"/>
    <path class="fil20" d="M47980.51 40180.41l-67.49 20.28c-795.65,237.78 -2149.32,322.13 -2600.9,342.94 -26.1,1.06 -50.16,3.25 -69.6,4.31l-1.89 -68.84c19.44,-1.14 43.5,-2.73 69.37,-3.48 453.7,-23 1810.85,-107.58 2595.53,-343.78l67.79 -21.33 7.19 69.9z"/>
    <path class="fil12" d="M49244.53 41754.24l-6.96 -1.06c-32.53,-6.96 -93.96,-41.91 -93.96,-128.38 0,-17.03 7.72,-77.62 25.34,-213.73 64.08,-502.87 215.16,-1681.4 159.63,-2347.31l31.78 -37.14 37.37 31.55c55.76,673.09 -95.55,1856.16 -160.16,2361.98 -13.84,106.75 -24.28,191.56 -24.28,204.65 0,52.35 36.84,60.07 38.13,60.6l27 41.08 -33.89 27.76z"/>
    <path class="fil12" d="M44980.91 40364.03l-34.12 -29.89c-220.23,-1501.8 -803.9,-2504.74 -809.72,-2514.65l12.25 -47.51 47.21 12.02c6.43,10.44 596.53,1023.83 819.1,2540.23l-29.88 39.8 -4.84 0z"/>
    <path class="fil20" d="M48734.25 45199.29l-9.91 71.26c-807.31,147.08 -1545.01,201.24 -2190.11,201.24 -680.05,0 -1256.53,-58.7 -1705.91,-131.33 -714.48,-113.18 -1222.12,-276.21 -1463.38,-363.75l38.66 -60.59c576.79,206.53 2565.35,792.85 5330.65,283.17z"/>
    <path class="fil21" d="M43769.77 33140.15c-15.74,-19.52 16.04,-143.9 67.03,-276.82 35.48,45.69 69.37,97.97 96.61,156.68 -75.51,80.34 -149.5,129.97 -163.64,120.14zm-99.26 -508.47l-31.78 5.37 5.38 32.3c1.58,1.06 78.68,57.35 159.55,152.67 -49.63,122.49 -117.94,318.13 -60.83,356.03l28.83 8.55c54.7,0 132.39,-69.45 180.96,-120.14 12.03,30.94 21.87,63.25 28.83,97.14l22.16 18.16 4.77 -0.53 18.16 -27.24c-61.89,-309.57 -343.47,-513.76 -356.03,-522.31z"/>
    <path class="fil21" d="M46237.44 33287.97c-59.46,0 -119.53,-6.65 -177.18,-19.74l-17.4 -27.99 27.77 -17.4c206.3,48.57 448.7,-1.06 590.4,-118.78 49.63,-41.08 107.5,-109.4 103.27,-198.52 -10.44,-212.73 -344.3,-231.95 -347.48,-231.95l-16.57 -8.02c-158.27,-187.62 -266.07,-1125.73 -252.46,-1166.05l29.05 -14.38 15.51 25.35c-2.12,66.72 96.61,930.69 237.25,1117.71 62.72,5.07 369.65,41.68 381.15,275.23 4.23,85.33 -37.68,167.34 -120.14,236.19 -114.46,95.24 -282.87,148.35 -453.17,148.35z"/>
    <path class="fil22" d="M45136 34024.62c0,0 1247.68,-259.72 1651.75,-305.87 0,0 -52.28,543.12 -560.14,693.14 -508.47,150.25 -1091.61,-387.27 -1091.61,-387.27z"/>
    <path class="fil23" d="M45504.05 32166.78c-22.16,150.25 -91.31,264.19 -155.09,254.35 -63.77,-8.85 -97.66,-137.46 -75.8,-287.71 21.94,-150.02 91.54,-263.65 155.09,-254.88 63.78,9.31 97.44,138.75 75.8,288.24z"/>
    <path class="fil23" d="M46903.05 32023.5c-21.87,149.71 -91.24,263.65 -154.79,254.27 -63.78,-8.78 -97.9,-137.92 -75.81,-288.24 22.17,-149.42 91.32,-263.66 155.09,-254.27 63.55,9.3 97.44,138.74 75.51,288.24z"/>
    <path class="fil24" d="M60447.2 62899.93c-46.15,15.74 -693.07,801.18 -3187.98,970.72 -2494.61,169.54 -3079.94,-336.36 -3079.94,-336.36l108.11 1028.89c0,0 3331.87,431.31 6162.76,-385.07l-2.95 -1278.18z"/>
    <path class="fil15" d="M52130.95 47222.8l1250.86 5207.03 1214.09 -370.63 -1923.72 -5022.36 -541.23 185.96zm1234.37 5259.68l-11.5 -3.25 -10.97 -14.68 -1261.6 -5251.58 14.98 -27.24 581.85 -200.18 29.35 13.69 1939.99 5066.62 -0.53 18.38 -13.84 11.95 -1261.6 385.16 -6.13 1.13z"/>
    <path class="fil20" d="M53543.56 53302.34l114.54 619.15c163.33,-59.24 1063.54,-376.3 1902.92,-437.13l-296.79 -631.18c-131.03,9.84 -1059.08,89.88 -1720.67,449.16zm96.91 673.7l-11.2 -3.25 -11.5 -15.74 -123.01 -661.97 11.43 -24.59c720.07,-398.17 1760.16,-464.29 1770.6,-464.82l22.39 13.02 318.35 676.04 -1.59 21.94 -18.15 11.42c-924.72,59.24 -1938.94,441.97 -1949.07,446.21l-8.25 1.74z"/>
    <polygon class="fil24" points="55180.71,62415.22 55158.24,62397.44 55019.72,61843.28 55036.28,61815.29 55064.58,61832.38 55202.8,62386.47 55186.31,62414.69 "/>
    <path class="fil24" d="M55796.38 62415.22l-9.84 -2.57 -12.03 -27.84c0.53,-33.37 -77.16,-252.23 -153.5,-446.21l13.39 -30.18 29.58 13.08c172.95,440.39 158.27,471.33 153.2,480.71l-20.8 13.01z"/>
    <polygon class="fil24" points="56289.34,62415.22 56268,62400.01 56083.03,61938.6 56096.12,61908.42 56125.7,61920.97 56310.97,62383.52 56297.89,62413.71 "/>
    <polygon class="fil24" points="56859.16,62322.85 56837.22,62307.72 56668.06,61845.47 56681.91,61815.89 56711.26,61829.74 56880.72,62291.68 56867.18,62321.33 "/>
    <path class="fil24" d="M56499.35 62873.76c-931.14,0 -1655.76,-241.79 -1665.14,-244.97l-15.2 -16.49 -271.68 -1338.24 17.86 -26.48 27.54 17.63 269.02 1324.54c125.66,39.5 1171.35,356.18 2330.74,189.82 1321.9,-190.35 1989.09,-718.48 2273.1,-1024.35l-554.09 -1480.4 13.62 -29.65 29.65 13.61 559.39 1493.34 -4.77 23.98c-282.41,308.44 -959.21,854.81 -2310.24,1049.39 -240.43,34.42 -476.39,48.27 -699.8,48.27z"/>
    <polygon class="fil20" points="55387.24,45898.33 51376.15,46790.74 48943.2,47330.68 48820.19,46854.22 51030.04,46357.55 55318.93,45395.69 "/>
    <path class="fil15" d="M51376.15 46790.74l-2432.95 539.94 -123.01 -476.46 2209.85 -496.67c119.76,150.02 246.85,309.12 346.11,433.19z"/>
    <path class="fil25" d="M54904.95 45705.87c0.53,-77.17 9.08,-167.35 20.8,-251.7 -30.11,143.28 -74.44,301.85 -131.79,386.21 131.79,-404.14 147.83,-850.05 147.83,-855.95l36.01 -32.83 33.67 36.01c-1.06,20.27 -13.32,359.28 -106.52,718.26z"/>
    <path class="fil17" d="M48104.05 34410.22c-7.41,538.58 -408.3,1132.46 -1486.82,1393.47 -1077.92,261.84 -1809.27,-123.01 -2109.46,-400.36 -300.27,-276.74 -284.53,-784.91 -305.87,-1408.9 -9.91,-278.86 -11.72,-485.7 -32,-668.78 17.32,-32.3 28.52,-61.96 30.41,-85.94 11.2,-138.83 -39.79,-348.31 -103.57,-485.47 -72.1,-153.2 -179.37,-313.06 -297.32,-395.07 -169.46,-305.03 -321.9,-596.76 -363.21,-990.38 -26.71,-257 46.15,-472.91 137.69,-627.7 334.39,129.44 547.13,-73.46 547.13,-73.46 0,0 109.7,-153.73 787.02,-446.74 677.11,-291.95 1217.35,-277.27 1309.42,-307.45 53.87,-17.86 179.83,-129.45 276.44,-235.14l23.75 57.35c85.19,231.42 99.57,639.5 99.57,639.5l-1.29 -2.42c-9.61,-17.32 -95.55,-155.01 -182.33,-205.48 -92.6,-53.63 -531.39,-61.96 -1101.14,92.3 -570.35,154.87 -1093.5,531.17 -1130.57,593.05 -36.54,61.66 -55,469.74 0,1178.08 16.04,205.48 41.61,394.69 69.38,560.98 -7.19,111.06 -10.97,217.27 -11.73,315.47 -2.95,729.68 563.7,1780.67 563.7,1780.67 0,0 331.44,568.46 1070.2,538.35 737.92,-30.72 1894.67,-400.36 2087.06,-646.92 48.87,-63.55 89.42,-142.3 123.01,-224.99l0.53 55.98z"/>
    <path class="fil13" d="M50379.87 46765.1c-140.42,65.13 -106.75,-207.37 -89.43,-316.01 -24.81,114.24 -100.84,419.8 -222.87,419.8 -107.81,0 -107.81,-218.49 -99.79,-338.4l0 -1.06c2.95,-44.25 7.49,-76.63 7.49,-76.63l-80.34 68.39 -1.06 1.06 -160.92 138.44c0,0 -301.33,311.24 -381.14,266.91 -23.23,-12.48 -33.14,-40.55 -35.26,-73.38 -4.76,-74.45 28.6,-174.01 33.37,-190.27l-22.93 38.66 -3.25 4.61c-49.1,80.27 -154.26,236.12 -215.31,218.79l-22.7 -36.77c-38.2,-139.96 22.7,-620.81 22.7,-620.81 0,0 -322.97,102.96 -957.93,-92.9 -634.89,-195.95 -1675.5,-854.29 -2553.32,-1581.55 -877.81,-728.09 -1755.62,-1536.75 -1940.29,-1871.67 0,0 152.37,-210.32 406.49,-464.14 87.83,-89.2 188.68,-182.85 298.38,-275.68 428.12,-357.69 819.86,-542.06 819.86,-542.06 0,0 1317.36,1582.37 1887.71,2389.98 570.36,810.02 1312.07,1663.25 1312.07,1663.25 0,0 1016.33,-206.84 1593.87,24.51 577.54,230.29 577.54,1166.13 404.6,1246.93z"/>
    <path class="fil25" d="M49559.4 46186.95c0,14.75 -2.65,302.99 -242.85,667.27 -4.76,-74.45 28.6,-174.01 33.37,-190.27l-22.93 38.66c159.33,-293.01 163.34,-512.41 163.34,-515.66l34.12 -34.35 0.53 0 34.42 34.35z"/>
    <path class="fil25" d="M49967.78 46529.43c2.95,-44.25 7.49,-76.63 7.49,-76.63l-80.34 68.39c100.84,-194.05 81.4,-326.9 80.34,-329.1l29.88 -39.49 39.5 29.58c1.05,7.49 21.33,147.07 -76.87,347.25z"/>
    <path class="fil14" d="M49316.55 45991.08c0,0 -163.86,508.24 -230.82,898.16 -38.2,-139.96 22.7,-620.81 22.7,-620.81 0,0 -322.97,102.96 -957.93,-92.9 -634.89,-195.95 -1675.5,-854.29 -2553.32,-1581.55 -877.81,-728.09 -1755.62,-1536.75 -1940.29,-1871.67 0,0 152.37,-210.32 406.49,-464.14 546.07,771.59 761.68,1125.96 1553.32,1945.89 878.04,909.29 2618.68,1986.14 2818.33,1948.54 200.18,-38.43 881.52,-161.52 881.52,-161.52z"/>
    <path class="fil13" d="M55334.66 45690.81l-27.76 -9.53c-20.5,-15.96 -27.46,-59.77 -28.83,-113.48 -1.89,-129.9 38.74,-321.53 51.83,-380.01 -31.55,111.06 -206.08,700.63 -353.91,710.54 -54.47,3.63 -72.1,-80.42 -71.04,-192.46 0.53,-77.17 9.08,-167.35 20.8,-251.7 28.07,-129.45 43.81,-243.99 48.35,-282.12 -8.25,38.13 -31.48,152.67 -48.35,282.12 -30.11,143.28 -74.44,301.85 -131.79,386.21 -25.64,36.01 -53.63,57.95 -83.29,57.95 -42.44,0 -67.26,-51.6 -81.4,-128.69 -41.39,-236.72 23.22,-713.72 23.22,-713.72 0,0 -311.16,323.27 -934.93,334.7 -623.46,10.97 -1513.75,-461.95 -2263.71,-1028.06 -750.79,-566.04 -1501.28,-1363.51 -1720.9,-1698.2 0,0 132.32,-259.12 350.35,-518.31 88.67,-107.28 193.3,-213.49 308.07,-301.86 388.55,-296.48 561.5,-491.9 564.45,-495.61l0.53 -1.05c0,0 554.31,748.06 1052.04,1383.55 495.91,636.02 2155.45,1797.23 2155.45,1797.23 0,0 235.67,-200.18 812.15,-341.87 578.6,-141.17 670.67,14.14 785.44,499.31 116.35,484.18 -299.74,993.11 -426.77,1005.06z"/>
    <path class="fil25" d="M55496.11 44886.99c-14.68,139.05 -64.53,512.48 -189.21,794.29 -20.5,-15.96 -27.46,-59.77 -28.83,-113.48 95.33,-257 135.05,-563.62 147.91,-681.87l36.76 -38.66 -1.05 34.95 34.42 4.77z"/>
    <path class="fil14" d="M54793.96 44847.27c-10.44,36.54 -97.97,558.86 -164.69,922.37 -41.39,-236.72 23.22,-713.72 23.22,-713.72 0,0 -311.16,323.27 -934.93,334.7 -623.46,10.97 -1513.75,-461.95 -2263.71,-1028.06 -750.79,-566.04 -1501.28,-1363.51 -1720.9,-1698.2 0,0 132.32,-259.12 350.35,-518.31 494.02,694.96 1205.02,1623.23 2155.99,2296.32 1078.21,763.58 1709.17,779.31 2078.81,624.52 369.65,-153.72 489.71,-270.61 475.86,-219.62z"/>
   </g>
   <g>
    <path class="fil6" d="M24473.1 59265.04c-162.18,187.6 -275.09,-472.37 -275.09,-472.37 0,0 -23.83,372.62 -135.76,398.94 -112.92,23.91 -274.11,-448.46 -274.11,-448.46 0,0 11.91,249.3 -112.03,249.3 -69.88,0 -147.41,-147.68 -202,-278.2l-1.24 -2.84c-42.68,-102.51 -71.22,-193.82 -71.22,-193.82 0,0 -273.13,-597.21 -149.28,-1008.06 0,0 -223.6,-784.71 -360.97,-1107.18 -137.1,-325.23 -360.7,-723.28 -360.7,-723.28 48.9,-33.25 101.62,-73.7 158.7,-118.87 146.17,-117 321.49,-267.88 551.68,-426.59 248.77,-170.26 561.73,-347.19 975.16,-499.67 58.68,-20.98 118.6,-41.69 181.28,-63.3 0,0 -223.34,2578.54 -199.51,2615.8 26.41,36.09 387.11,460.81 424.72,672.15 36.99,211.43 11.91,1220.1 -149.63,1406.45z"/>
    <path class="fil26" d="M23472.87 58711.41c-42.68,-102.51 -71.22,-193.82 -71.22,-193.82 0,0 -273.13,-597.21 -149.28,-1008.06 0,0 -223.6,-784.71 -360.97,-1107.18 -137.1,-325.23 -360.7,-723.28 -360.7,-723.28 48.9,-33.25 101.62,-73.7 158.7,-118.87 146.17,-117 321.49,-267.88 551.68,-426.59 16.63,594.98 96.29,1981.34 231.16,2277.15 0,0 -121.98,651.7 0.63,1300.65z"/>
    <path class="fil27" d="M23364.4 60498.93c0,0 174.7,1356.22 99.67,3597.62 -74.6,2241.04 -423.12,6202.12 -423.12,6202.12l-373.87 0c0,0 -1557.24,-5678.36 -1780.23,-6849.47 -224.94,-1169.33 249.31,-2004.55 249.31,-2004.55 0,0 -1457.49,-2103.68 -1930.84,-2863.67 -473,-760.26 -2130,-3350.46 -2130,-3350.46l-808.54 597.83c0,0 -199.25,1358.09 -398.4,2341.42 -199.43,983.96 -647.97,4071.86 -647.97,4071.86 747.46,2230.02 149.63,4371.05 -61.17,5068.89 -212.32,696.96 -1046.37,3298.71 -1046.37,3298.71l-112.3 -17.25 -361.59 -57.43c0,0 -348.79,-7059.66 -372.62,-8168.44 -8.18,-330.92 -24.18,-869.45 -43.03,-1511.81 -42.94,-1511.46 -95.58,-3595.4 -69.88,-4888.59 30.05,-1481.31 244.94,-3468.61 360.97,-4890.44 2.84,-30.77 4.71,-61.8 7.82,-92.56 23.92,-310.47 44.28,-592.4 54.95,-832.37 2.22,-46.76 4.98,-95.04 7.82,-141.81 1.87,-37.96 4.09,-74.59 7.2,-112.56 74.69,-1090.91 297.67,-2202.19 359.46,-2496.39l0.98 -2.84c4,-4.98 7.2,-22.85 11.29,-51.39l1.51 -10.67 2.23 -9.69c0,0 226.09,-104.83 629.83,-319.63 250.9,-133.63 570.53,-308.96 946.88,-528.21 983.34,-572.75 1643.84,-1021.21 1643.84,-1021.21 0,0 522.88,-1107.54 896.47,-1904.52 291.98,-622.28 591.78,-1290.96 708.52,-1553.87 232.05,42.68 459.13,88.82 680.6,135.5 -135.76,230.9 -451.66,784.18 -716.96,1380.4 -348.53,785.43 -908.39,2004.9 -908.39,2004.9 522.26,161.82 2502.62,1420.15 2502.62,1420.15 1439.35,-1771.16 2681.77,-2736.62 3156.63,-3073.41 205.38,158.08 387.02,312.96 541.99,454.41 -383.29,289.22 -1288.83,980.85 -1780.94,1435.26 -634.54,585.65 -1593.96,1632.02 -1593.96,1632.02 55.83,182.17 134.52,635.43 192.22,996.14 43.92,278.82 76.9,504.29 76.9,504.29l-5.95 6.58c-53.7,71.84 -501.27,659 -897.72,1232.37 -238.01,342.48 -558.88,905.54 -795.11,1332.39 -16.9,32.01 -33.52,64.64 -49.53,93.8 -130.78,237.12 -227.42,418.41 -255.96,473.62l-3.12 7.83 -4.98 8.8 3.12 4.09 0.62 3.11 35.12 67.39 4393.98 8381.74z"/>
    <path class="fil28" d="M14597.51 47005.36c-291.09,1245.79 -828.1,5122.23 -937.81,6420.4 -83.49,998.09 -314.92,5190.69 -436.37,7428.54 -42.94,-1511.46 -95.58,-3595.4 -69.88,-4888.59 30.05,-1481.31 244.94,-3468.61 360.97,-4890.44 2.84,-30.77 4.71,-61.8 7.82,-92.56 23.92,-310.47 44.28,-592.4 54.95,-832.37 2.22,-46.76 4.98,-95.04 7.82,-141.81 1.87,-37.96 4.09,-74.59 7.2,-112.56 74.69,-1090.91 297.67,-2202.19 359.46,-2496.39l0.98 -2.84c4,-4.98 7.2,-22.85 11.29,-51.39l1.51 -10.67 2.23 -9.69c0,0 226.09,-104.83 629.83,-319.63z"/>
    <path class="fil28" d="M22738.3 70298.67l-71.22 0c0,0 -1557.24,-5678.36 -1780.23,-6849.47 -224.94,-1169.33 249.31,-2004.55 249.31,-2004.55 0,0 -1457.49,-2103.68 -1930.84,-2863.67 -473,-760.26 -2130,-3350.46 -2130,-3350.46l-808.54 597.83c0,0 -199.25,1358.09 -398.4,2341.42 -199.43,983.96 -647.97,4071.86 -647.97,4071.86 747.46,2230.02 149.63,4371.05 -61.17,5068.89 -212.32,696.96 -1046.37,3298.71 -1046.37,3298.71l-112.3 -17.25c318.74,-1133.85 941.02,-3424.78 1087.45,-4547.97 199.78,-1527.81 -149.28,-3553.7 -149.28,-3553.7 0,0 66.15,-663.97 265.04,-2238.82 199.16,-1575.2 830.86,-4402.16 830.86,-4402.16l996.49 -780c0,0 729.86,879.76 1567.91,1917.68 836.55,1037.57 3314.09,4325.52 3314.09,4325.52 0,0 -50.85,862.6 -117.62,2036.91 -66.51,1175.56 365.68,3358.28 581.2,4587.09 153.99,876.74 308.6,1855.63 361.59,2362.14z"/>
    <path class="fil28" d="M20943.93 48887.21l-5.95 6.58c-53.7,71.84 -501.27,659 -897.72,1232.37 -238.01,342.48 -558.88,905.54 -795.11,1332.39 -16.9,32.01 -33.52,64.64 -49.53,93.8 -130.78,237.12 -227.42,418.41 -255.96,473.62 91.3,-301.4 1544.79,-3172.01 1927.37,-3643.05 43.92,278.82 76.9,504.29 76.9,504.29z"/>
    <path class="fil20" d="M18793.22 41997.55c-116.74,262.91 -416.54,931.59 -708.52,1553.87 -373.59,796.98 -896.47,1904.52 -896.47,1904.52 0,0 -660.5,448.46 -1643.84,1021.21 -378.57,219.87 -698.82,396.45 -951.33,529.72 -401.78,214.54 -625.38,318.12 -625.38,318.12 44.81,-313.67 162.43,-1572.98 705.05,-2528.05 0,0 -1593.97,-461.43 -2490.08,-386.75 0,0 -404.63,1436.51 -289.14,2823.49 -70.59,-7.2 -150.25,-15.38 -235.87,-22.58 -383.64,-32.63 -881.71,-56.46 -1259.67,-12.27 -78.41,-386.67 -439.12,-2188.33 -494.95,-3062.48 -61.8,-983.25 63.12,-1780.32 63.12,-1780.32 0,0 1220.1,-535.94 3599.13,-735.19 1452.51,-121.36 3471.46,53.7 5227.95,376.71z"/>
    <path class="fil20" d="M24684.52 47922.1c-199.51,1108.52 -336.88,2265.59 -336.88,2265.59 0,0 112.65,586.17 75.93,1482.91 -34.23,807.03 -178.17,2610.55 -207.33,2963.34 -592.76,218.01 -980.14,489.98 -1265.89,716.7 -97.54,75.93 -183.16,146.79 -260.95,209.56 -58.95,-132.39 -965.73,-2214.73 -495.58,-3106.13 0,0 -137.36,-1158.31 -149.28,-2055.05 -11.91,-896.38 111.67,-2402.5 111.67,-2402.5l-236.5 -49.61 -975.78 940.3c0,0 -23.82,-167.41 -58.68,-392.62 -58.94,-372.62 -148.65,-906.79 -210.44,-1107.81 0,0 959.42,-1046.37 1593.96,-1632.02 492.11,-454.41 1397.65,-1146.04 1780.94,-1435.26 378.84,348.53 604.05,625.48 634.81,713.32 74.68,212.32 199.16,1779.96 0,2889.28z"/>
    <path class="fil20" d="M23507.72 43865.09c-474.86,336.79 -1717.28,1302.25 -3156.63,3073.41 0,0 -1980.36,-1258.33 -2502.62,-1420.15 0,0 559.86,-1219.47 908.39,-2004.9 265.3,-596.22 581.2,-1149.5 716.96,-1380.4 138.97,29.78 275.71,60.55 408.98,92.55 676.6,159.33 1274.43,340.61 1730.8,529.1 625.39,258.19 1183.02,591.6 1645.08,924.66 86.87,61.17 170,123.94 249.04,185.73z"/>
    <path class="fil15" d="M15402.94 44536c0,0 -536.04,1439.35 -809.88,2470.87 -401.78,214.54 -625.38,318.12 -625.38,318.12 44.81,-313.67 162.43,-1572.98 705.05,-2528.05 0,0 -1593.97,-461.43 -2490.08,-386.75 0,0 -404.63,1436.51 -289.14,2823.49 -70.59,-7.2 -150.25,-15.38 -235.87,-22.58 -124.56,-622.28 -370.75,-2188.33 59.3,-3232.21 0,0 2241.67,-31.65 3686,557.11z"/>
    <path class="fil15" d="M22950.35 55350.64c-97.54,75.93 -183.16,146.79 -260.95,209.56 -58.95,-132.39 -965.73,-2214.73 -495.58,-3106.13 0,0 -137.36,-1158.31 -149.28,-2055.05 -11.91,-896.38 111.67,-2402.5 111.67,-2402.5l-236.5 -49.61 -975.78 940.3c0,0 -23.82,-167.41 -58.68,-392.62 367.64,-389.87 890.16,-933.81 997.74,-996.23 170.26,-99.67 850.95,-323.98 850.95,-323.98 -191.06,871.66 0,5172.46 0,5172.46 -170.35,677.76 82.78,2268.61 216.41,3003.8z"/>
    <path class="fil15" d="M23258.68 43679.36c-470.15,54.59 -1373.46,98.77 -2170.45,-215.43 -866.68,-340.7 -1129.85,-961.38 -1205.43,-1238.33 676.6,159.33 1274.43,340.61 1730.8,529.1 625.39,258.19 1183.02,591.6 1645.08,924.66z"/>
    <polygon class="fil29" points="13950.43,47398.69 13951.67,47399.58 13952.65,47396.74 "/>
    <ellipse class="fil30 str0" transform="matrix(1.91581 0.295596 -0.295596 1.91581 39432.5 63509.6)" rx="1798.37" ry="809.77"/>
    <path class="fil31" d="M13952.65 47396.74c4,-4.98 7.2,-22.85 11.29,-51.39l-11.29 51.39z"/>
    <polygon class="fil6" points="27511.12,71917.09 31321.41,70734.33 30088.78,70298.67 25879.55,71419.02 "/>
    <path class="fil32" d="M14112.87 70609.23c-74.6,0 -412.72,-186.35 -966,0 -553.64,187.51 -1213.52,648.33 -1213.52,648.33l2328.53 0 -149.01 -648.33z"/>
    <path class="fil32" d="M22742.03 71257.56l2403.22 0c0,0 -1382.27,-983.96 -2502.62,-1046.37l99.4 1046.37z"/>
    <polygon class="fil33" points="25879.55,71419.02 25879.55,71767.81 27511.12,72303.22 27511.12,71917.09 "/>
    <polygon class="fil34" points="27511.12,72303.22 31321.41,71069.96 31321.41,70734.33 27511.12,71917.09 "/>
    <path class="fil35" d="M26912.05 69453.41c-43.56,0 -86.51,-19.11 -116.02,-55.21l-18449.01 -22876.86c-52.01,-64.28 -41.7,-158.08 22.58,-210.09 64.28,-52.11 158.08,-41.7 210.18,22.58l18448.65 22876.15c52.1,64.28 41.7,158.7 -22.22,210.8 -27.65,21.96 -60.55,32.63 -94.16,32.63z"/>
    <path class="fil13" d="M21613.6 42137.76c0,0 -91.31,166.53 -213.92,369.51 -202.62,334.03 -493.71,768.44 -617.29,732.34 -199.16,-57.7 -256.86,-331.18 -274.11,-779.73 -0.98,-32.28 -1.6,-65.26 -1.6,-99.76 0,-59.83 1.6,-124.83 3.47,-191.33 18.49,-445.08 88.11,-989.2 88.11,-989.2 12.89,32 26.05,62.68 43.56,92.82 151.5,263.17 512.83,594.71 970.44,863.48l1.34 1.87z"/>
    <path class="fil36" d="M26664.26 69600.82c49.88,-25.07 485.89,-610.09 485.89,-610.09l1917.68 2017.44 -1071.18 124.2 -1332.39 -1531.55z"/>
    <path class="fil20" d="M17667.54 49695.48c-135.85,0 -271.61,-18.76 -407.82,-54.85 -296.34,-77.8 -511.85,-250.64 -639.53,-511.59 -395.2,-809.16 140.57,-2240.06 239.35,-2488.21 301.13,151.24 2390.94,1196.27 2904.39,1457.93 -126.07,231.44 -928.03,1596.72 -2096.39,1596.72zm2165.12 -1645.08c-479.58,-246.19 -2951.52,-1482.65 -2975.97,-1494.21l-30.05 -2.49 -21.96 20.98c-27.92,67.75 -698.56,1673.63 -250.99,2587.62 137.72,280.42 368.62,466.41 687.27,551.14 141.45,37.88 284.77,57.08 426.58,57.08 1315.77,0 2172.59,-1653.26 2181.74,-1669.27l-16.62 -50.85z"/>
    <path class="fil20" d="M18297.02 52207.26l0 282.55 -132.39 48.37 0 -969.82 132.39 -65.53 0 704.43zm-2272.07 -1.25c-553.29,-110.69 -1021.3,-287.35 -1403.61,-478.95l176.84 -544.48c370.75,264.41 805.16,494.25 1285.36,610 299.53,72.82 618.89,101.63 938.43,101.63 363.29,0 727.99,-37.34 1067.98,-92.47l0 440.99c-561.73,87.13 -1282.16,119.5 -2065,-36.72zm-1570.14 -208.31l-72.82 -46.41 55.57 -235.88 18.14 -75.22 144.92 -606.62 18.49 -79.67 15.03 -60.54 144.3 105.35 -20.09 61.8 -23.83 74.68 -180.31 557.02 -23.83 70.32 -75.57 235.17zm4740.81 -445.35c16.01,-29.16 32.63,-61.79 49.53,-93.8 -229.57,68.73 -532.84,149.64 -874.42,216.41l0 -232.05 -17.25 -32.01 -36.72 -1.87 -206.09 102.87 -20.72 33.25 0 180.66c-631.61,103.49 -1355.86,147.68 -1988.54,-4.44 -478.24,-115.05 -910.79,-347.81 -1279.05,-613.74l36.1 -110.78 -14.14 -41.7 -211.42 -155.59 -34.77 -4.98 -23.83 26.94 -19.2 79.66c-477,-392.71 -816.1,-809.16 -962.89,-1005.21 -3.11,37.97 -5.33,74.6 -7.2,112.56 173.11,221.74 504.03,609.74 950.97,973.56l-148.03 621.03c-407.38,-230.81 -696.6,-464.82 -865.71,-620.41 -3.11,30.76 -4.98,61.79 -7.82,92.56 179.42,159.32 465.17,383.28 855.3,602.89l-66.41 281.66 16 39.83 135.5 88.11 19.38 4.36 13.52 -1.87 22.58 -22.58 87.84 -270.02c386.4,193.47 857.53,369.15 1412.68,481.45 398.31,79.66 780.98,110.07 1134.48,110.07 345.95,0 664.6,-29.17 944.66,-72.11l0 273.75 15.74 30.5 22.22 7.47 11.65 -1.87 206.98 -74.69 24.19 -35.11 0 -249.04c242.72,-47.92 446.32,-103.13 599.69,-150.88l-35.12 -67.39c-146.52,45.52 -337.5,97.53 -564.57,142.08l0 -439.75c315.8,-61.79 599.69,-134.87 824.89,-199.78z"/>
    <path class="fil37" d="M24035.31 59216.14c-26.05,0 -59.04,-15.38 -95.67,-64.99 -218.01,-302.02 -404.98,-1139.46 -392.71,-1200.63l44.54 -28.8 29.43 41.07c1.25,72.11 173.46,860.02 379.2,1144.17 22.94,32.01 35.21,34.5 35.21,34.5 85.62,-38.59 92.46,-825.25 27.2,-1176.18l29.88 -43.56 43.21 29.43c42.41,227.69 101,1184.71 -72.47,1258.68l-27.82 6.31z"/>
    <path class="fil14" d="M21613.6 42137.76c0,0 -91.31,166.53 -213.92,369.51 -325.32,-59.57 -695.36,-236.5 -889.53,-338.48 18.49,-445.08 88.11,-989.2 88.11,-989.2 12.89,32 26.05,62.68 43.56,92.82 151.5,263.17 512.83,594.71 970.44,863.48l1.34 1.87z"/>
    <path class="fil6" d="M12561.84 50884.56l-80.28 25.78c-72.11,-23.92 -174.71,-202.62 -249.3,-327.19l-5.07 -7.82c-38.85,-64.9 -69.88,-113.27 -82.77,-113.27l-1.6 1.96 -8.09 9.69 -1.34 1.24c-59.21,102.25 -264.06,783.47 -437.16,783.47 -65.62,0 -203.25,-64.28 -363.2,-164.31 -294.2,-180.04 -666.55,-472.73 -819.3,-682.2 -236.14,-323.71 62.42,-846.86 62.42,-846.86 0,0 -37.34,-461.08 -174.71,-896.11 -136.74,-435.3 -418.76,-1367.87 -348.79,-1394.81 93.44,-36.1 212.05,-59.92 345.32,-75.3 391.47,-46.06 911.5,-18.5 1300.39,15.38 69.35,5.95 135.23,13.51 195.15,19.47 211.08,20.98 350.93,40.45 350.93,40.45l-23.83 2055.05c0,0 459.84,883.58 484.91,1095.63 18.5,161.46 -56.72,381.33 -143.68,459.75z"/>
    <path class="fil26" d="M12561.84 50884.56c-100.64,-470.42 -372.61,-1141.69 -511.49,-1493.23 -128.65,-320.88 -286.11,-1606.24 -351.99,-2177.12 69.35,5.95 135.23,13.51 195.15,19.47 211.08,20.98 350.93,40.45 350.93,40.45l-23.83 2055.05c0,0 459.84,883.58 484.91,1095.63 18.5,161.46 -56.72,381.33 -143.68,459.75z"/>
    <path class="fil26" d="M12133.39 50474.95c-59.21,102.25 -264.06,783.47 -437.16,783.47 -65.62,0 -203.25,-64.28 -363.2,-164.31 421.16,-206.35 738.57,-549.54 800.36,-619.16z"/>
    <path class="fil38" d="M33761.88 70182.91c-54.5,0 -99.04,-44.81 -99.04,-99.4l0 -773.42c0,-55.21 44.54,-99.49 99.04,-99.49 55.21,0 100.11,44.28 100.11,99.49l0 773.42c0,54.59 -44.9,99.4 -100.11,99.4z"/>
    <path class="fil38" d="M37784.49 70580.34c-55.22,0 -100.03,-44.55 -100.03,-99.76l0 -710.12c0,-54.85 44.81,-99.04 100.03,-99.04 54.94,0 99.13,44.19 99.13,99.04l0 710.12c0,55.21 -44.19,99.76 -99.13,99.76z"/>
    <path class="fil38" d="M41868.53 70580.34c-55.21,0 -99.05,-44.55 -99.05,-99.76l0 -784.09c0,-55.21 43.84,-99.13 99.05,-99.13 55.21,0 99.49,43.92 99.49,99.13l0 784.09c0,55.21 -44.28,99.76 -99.49,99.76z"/>
    <path class="fil39" d="M42827.06 64265.92c-59.93,171.24 -118.52,455.75 -176.22,807.29 -94.15,568.4 -183.86,1315.77 -260.32,2050.34 -28.9,273.84 -56.82,545.81 -81.89,805.52 -101.36,1062.28 -166.26,1928.61 -166.26,1928.61 0,0 -1369.73,236.5 -4507.52,137.1 -203.24,-6.58 -397.07,-14.76 -580.84,-24.45 -2667.63,-130.52 -3442.03,-516.29 -3442.03,-597.82 0,-80.29 -605.29,-5584.57 -697.85,-6418.89 -7.2,-69.35 -11.02,-106.07 -11.02,-106.07 0,0 410.31,216.76 1313.9,488.38 585.91,175.06 1378.53,373.6 2400.99,550.17 218,37.34 447.92,74.59 687.89,108.82 138.61,21.61 282.55,41.08 428.1,60.2 3399.08,448.19 5093.07,210.8 5093.07,210.8z"/>
    <path class="fil40" d="M42827.06 64265.92c-59.93,171.24 -118.52,455.75 -176.22,807.29 -739.28,107.94 -1875,146.53 -3621.8,3.2 -3521.96,-289.22 -5366.83,-1486.38 -6114.91,-2122.79 -7.2,-69.35 -11.02,-106.07 -11.02,-106.07 0,0 410.31,216.76 1313.9,488.38 585.91,175.06 1378.53,373.6 2400.99,550.17 218,37.34 447.92,74.59 687.89,108.82 138.61,21.61 282.55,41.08 428.1,60.2 3399.08,448.19 5093.07,210.8 5093.07,210.8z"/>
    <path class="fil41" d="M39366.27 59683.45l-2939.87 52.1 -1370 23.83 -3248.57 -946.35 3547.48 -336.79c98.16,16.9 216.41,41.97 349.06,73.98 1210.05,290.46 3661.9,1133.23 3661.9,1133.23z"/>
    <path class="fil6" d="M36426.4 59735.55l-1370 23.83 -3248.57 -946.35 3547.48 -336.79c98.16,16.9 216.41,41.97 349.06,73.98 166.26,367.63 457.26,811.74 722.03,1185.33z"/>
    <path class="fil40" d="M37054.01 69970.33c-2667.63,-130.52 -3442.03,-516.29 -3442.03,-597.82 0,-87.22 -708.87,-6524.96 -708.87,-6524.96 0,0 410.31,216.76 1313.9,488.38 536.65,1754.27 1620.63,4956.33 2837,6634.4z"/>
    <polygon class="fil42" points="34985.45,58234.05 33276.35,54441.99 33799.22,54441.99 35455.6,58234.05 "/>
    <path class="fil43" d="M34270.62 70534.55c0,298.29 -240.86,539.77 -537.28,539.77 -297.31,0 -537.9,-241.48 -537.9,-539.77 0,-298.29 240.59,-539.77 537.9,-539.77 296.42,0 537.28,241.48 537.28,539.77z"/>
    <path class="fil43" d="M38362.84 70791.76c0,321.14 -259.08,580.85 -578.35,580.85 -319.9,0 -578.98,-259.71 -578.98,-580.85 0,-320.87 259.08,-581.2 578.98,-581.2 319.27,0 578.35,260.33 578.35,581.2z"/>
    <path class="fil43" d="M42430.97 70492.85c0,321.14 -259.08,581.47 -579.07,581.47 -319.54,0 -578.62,-260.33 -578.62,-581.47 0,-320.87 259.08,-581.2 578.62,-581.2 319.99,0 579.07,260.33 579.07,581.2z"/>
    <path class="fil6" d="M37976.8 62824.97l-283.27 925.01c0,0 -1005.2,-143.41 -2380.9,-367.64 -1376.04,-224.23 -2034.06,-590 -2010.23,-829.88l1194.76 170.26 3479.64 102.25z"/>
    <polygon class="fil44" points="31396.01,58825.3 33015.13,62511.3 34497.16,62722.72 34994.61,60008.06 "/>
    <polygon class="fil5" points="34497.16,62722.72 38743.02,62846.93 39539.73,59970.72 34994.61,60008.06 "/>
    <polygon class="fil45" points="34985.45,60058.29 35057.02,59758.76 31321.41,58671.58 31459.4,58968.62 "/>
    <polygon class="fil46" points="34985.45,60058.29 39539.73,59970.72 39689.63,59609.39 35057.02,59758.76 "/>
    <polygon class="fil46" points="31807.83,58813.03 35355.93,58476.24 35355.93,58189.87 31321.41,58671.58 "/>
    <polygon class="fil45" points="35355.93,58476.24 39241.09,59624.15 39689.63,59609.39 35355.93,58189.87 "/>
    <polygon class="fil42" points="29540.47,54715.83 32454.65,60369.12 32903.11,60294.17 29951.68,54553.66 "/>
    <path class="fil40" d="M42390.52 67123.55c-28.9,273.84 -56.82,545.81 -81.89,805.52 -709.85,-21.34 -1747.95,-210.81 -2942.36,-910.26 -1488.34,-871.66 -2341.16,-2278.38 -2748.27,-3132.71 218,37.34 447.92,74.59 687.89,108.82 557.37,847.13 1475.36,2096.48 2340.18,2603 760.88,446.59 1892.87,534.16 2744.45,525.63z"/>
    <path class="fil42" d="M41845.12 66952.01c-854.69,0 -1822.02,-210.09 -2688.26,-627.25 -1734.26,-836.19 -2835.76,-2399.48 -2846.78,-2414.77 -31.3,-45.52 -20.36,-107.94 25.16,-138.97 45.17,-31.38 106.96,-20.45 138.25,24.45 10.67,15.65 -5740.42,-786.04 2770.24,2350.49 1698.07,624.77 3616.38,820.19 4428.12,77.8 200.13,-183.15 287.88,-427.48 261.3,-725.5 -59.92,-649.84 -651.79,-1395.43 -1049.84,-1644.11 -46.77,-29.52 -60.55,-90.69 -32.01,-137.1 28.9,-47.38 90.69,-61.43 137.37,-32 423.74,264.77 1075.27,1056.68 1142.39,1795.07 33.25,363.82 -75.93,663.35 -324.96,890.69 -424.1,388.36 -1140.79,581.2 -1960.98,581.2z"/>
    <path class="fil5" d="M42827.06 64354.03c-184.4,152.48 -1323.86,265.66 -3714.89,82.15 -877.54,-66.15 -1758.98,-209.47 -2564.41,-378.22 -1388.49,-289.49 -2549.03,-653.93 -3064.08,-832.46 -812.63,-282.91 -697.22,-681.22 -527.85,-850.32l461.97 235.25c-42.59,227.43 703.54,515.32 2875.32,905.54 367.56,65.53 776.89,134.88 1230.42,206.98 3124.62,498.69 5303.52,381.78 5303.52,381.78 0,0 185.37,97.8 0,249.3z"/>
    <path class="fil44" d="M36547.76 64057.96c-1388.49,-289.49 -2549.03,-653.93 -3064.08,-832.46 -812.63,-282.91 -697.22,-681.22 -527.85,-850.32l461.97 235.25c-42.59,227.43 703.54,515.32 2875.32,905.54 73.71,191.6 163.06,376.09 254.64,541.99z"/>
    <path class="fil13" d="M24239.44 39508.09c-200.76,400.54 -887.31,2519.25 -1008.05,2778.95 -108.56,232.41 -276.95,531.32 -826.5,425.7 -93.18,-17.25 -197.56,-46.77 -313.67,-90.07 -65.53,-24.18 -129.19,-49.88 -192.22,-77.44 -170.62,-73.44 -333.41,-156.83 -487.76,-248.41 -31.03,-18.49 -61.79,-37.08 -91.93,-55.21 -455.66,-282.65 -811.39,-617.3 -966,-886.07 -19.47,-32.99 -33.25,-66.15 -47.65,-101.36 -154.97,-395.2 20.71,-884.73 20.71,-884.73 -154.08,-47.13 -271.35,-174.09 -353.23,-337.86 -218.01,-442.23 -180.05,-1154.84 80.64,-1298.16l55.48 -20.1c35.74,-9.06 69.61,-11.02 100.73,-9.69 311.71,72.38 404.89,479.49 404.89,479.49 0,0 178.44,-523.14 407.47,-849.97 144.57,-206.36 466.06,-396.71 684.34,-509.63 128.65,-67.12 221.74,-106.33 221.74,-106.33 244.41,551.68 958.53,1176.18 1601.52,1511.81 257.83,133.27 497.8,227.07 709.49,279.08z"/>
    <path class="fil14" d="M20661.03 40551.62c-11.92,535.41 366.92,1233.62 658.28,1689.99 -455.66,-282.65 -811.39,-617.3 -966,-886.07 -19.47,-32.99 -33.25,-66.15 -47.65,-101.36 -154.97,-395.2 20.71,-884.73 20.71,-884.73 -154.08,-47.13 -271.35,-174.09 -353.23,-337.86 110.15,-462.95 169.37,-943.77 80.64,-1298.16l55.48 -20.1c35.74,-9.06 69.61,-11.02 100.73,-9.69 311.71,72.38 404.89,479.49 404.89,479.49 0,0 178.44,-523.14 407.47,-849.97 144.57,-206.36 466.06,-396.71 684.34,-509.63 -626.37,760.26 -1029.04,1951.47 -1045.66,2728.09z"/>
    <path class="fil29" d="M21321.53 39147.12c-45.16,-63.66 253.48,-334.65 678.47,-244.68 425.61,90.69 543.5,443.48 543.5,443.48 0,0 -280.69,-90.33 -651.7,-153.36 -371.11,-63.31 -570.27,-45.44 -570.27,-45.44z"/>
    <path class="fil29" d="M23402.98 39789.76c-17.33,-88.73 126.7,-243.35 434.68,-153.99 307.72,89.35 185.38,413.69 185.38,413.69 0,0 -113.27,-142.08 -267.26,-169.01 -153.37,-27.3 -343.1,-39.84 -352.8,-90.69z"/>
    <path class="fil47" d="M24993.75 39427.54l-34.14 36.01c-151.51,108.56 -404.27,122.7 -720.17,44.54 -211.69,-52.01 -451.66,-145.81 -709.49,-279.08 -642.99,-335.63 -1357.11,-960.13 -1601.52,-1511.81 0,0 -675.54,287.62 -906.08,615.96 -229.03,326.83 -407.47,849.97 -407.47,849.97 0,0 -93.18,-407.11 -404.89,-479.49l-2.85 -1.33c0,0 -197.91,-858.15 146.17,-1274.96 272.86,-329.94 644.59,-707.27 1556.36,-1019.96 235.87,-81.27 506.87,-158.44 823.29,-229.03 1538.76,-343.46 2172.41,724.25 2298.75,1131.37 120.74,388 176.31,1823.61 -37.96,2117.81z"/>
    <path class="fil21" d="M20062.58 39600.29c-16.01,-47.92 98.15,-119.14 196.31,-161.19 6.93,73.71 10.31,152.48 6.93,233.65 -64.99,0 -183.86,-13.15 -203.24,-72.46zm169.64 -568.3l-34.5 -16.9 -16.89 34.5c0.62,2.49 47.03,141.1 71.48,333.41 -76.55,31.03 -277.93,123.85 -241.48,234.54 31.92,97.89 183.42,109.54 251.79,109.8 -5.95,69.35 -16.27,140.21 -35.38,209.21l19.11 32.98 7.2 1.25 26.32 -20.45c116.38,-430.32 -41.07,-898.87 -47.65,-918.34z"/>
    <path class="fil21" d="M22866.95 41484.46l-5.69 -0.63c-17.87,-4.09 -442.86,-98.51 -722.03,-282.02l-7.82 -37.96 37.6 -7.82c231.52,152.12 576.85,244.05 676.6,268.15 79.67,-433.7 318.3,-1429.31 320.88,-1439.62l32.54 -19.74 20.09 32.63c-2.49,10.31 -251.88,1048.77 -325.59,1464.69l-11.29 17.6 -15.29 4.72z"/>
    <path class="fil48" d="M22560.48 41868.63c-445.7,0 -697.85,-211.07 -708.87,-221.38l-3.11 -38.32 38.23 -2.76c3.2,2.49 291.09,242.1 784.44,204.14l29.17 24.8 -24.45 29.17c-39.84,3.46 -78.07,4.35 -115.41,4.35z"/>
    <path class="fil48" d="M21991.55 39939.04c-113.27,164.39 -144.65,339.1 -69.97,390.84 74.95,51.48 227.34,-39.83 340.61,-203.87 113.54,-164.39 144.57,-339.1 69.97,-390.84 -74.68,-51.39 -227.07,39.56 -340.61,203.87z"/>
    <path class="fil48" d="M23354 40335.57c-110.43,160.57 -144.93,328.97 -76.56,376.35 68.38,47.04 213.65,-45.16 324.35,-205.47 110.69,-160.3 145.54,-328.34 77.17,-375.73 -68.37,-47.38 -214.27,44.19 -324.96,204.85z"/>
    <path class="fil47" d="M22404.89 42712.74c-93.18,-17.25 -197.56,-46.77 -313.67,-90.07 -65.53,-24.18 -129.19,-49.88 -192.22,-77.44 71.84,-147.41 260.32,-491.84 459.48,-442.86 176.93,42.59 104.11,401.79 46.41,610.37z"/>
    <path class="fil49" d="M24993.75 39427.54l-34.14 36.01c-151.51,108.56 -404.27,122.7 -720.17,44.54 -211.69,-52.01 -451.66,-145.81 -709.49,-279.08 -642.99,-335.63 -1357.11,-960.13 -1601.52,-1511.81 0,0 -675.54,287.62 -906.08,615.96 -229.03,326.83 -407.47,849.97 -407.47,849.97 0,0 -93.18,-407.11 -404.89,-479.49l-2.85 -1.33c0,0 -197.91,-858.15 146.17,-1274.96 272.86,-329.94 644.59,-707.27 1556.36,-1019.96 -17.25,414.94 185.99,1372.84 763.73,1893.76 578.97,521.37 1428.05,1198.5 2320.35,1126.39z"/>
    <polygon class="fil50 str1" points="27511.12,72303.21 31321.41,71069.96 98656.19,82068.03 73440.79,91925.19 "/>
    <rect class="fil51 str2" x="29540.48" y="54442" width="4258.75" height="273.84"/>
   </g>
   <g>
    <path class="fil52" d="M66053.77 30826.44c-13.44,182.39 -431.79,686.4 -573.5,825.21l-0.64 -0.58c-1.39,-3.71 -118.18,-363.34 -248.99,-601.73 -36.4,-66.07 -73.03,-123.33 -110,-159.9 -147.22,-151.74 -429.02,-223.9 -661.66,-257.22 -37.04,-4.93 -72.39,-9.22 -105.55,-12.7 -53.32,-5.74 -102,-10.02 -141.47,-11.24 -75.87,-5.1 -122.64,-4.29 -124.73,-3.65 -5.74,4.29 -263.94,-19.88 -451.85,463.09 -188.94,482.74 -319.81,1429.84 -319.81,1429.84 0,0 -1227.4,-1200.44 -1195.06,-1495.05 31.24,-286.08 353.49,-12.69 372.5,4.29 -11.82,-21.27 -239.83,-400.55 -184.83,-519.77 57.85,-123.11 377.43,24.11 377.43,24.11 0,0 -311.59,-613.55 -131.04,-729.12 179.73,-113.89 368.04,213.69 368.04,213.69 0,0 -24.75,-933.6 434.05,-966.93 457.82,-32.28 499.14,377.43 499.14,377.43 0,0 401.94,-581.09 556.93,-532.23 151.33,48.1 69.55,644.9 65.84,670.29 19.01,-15.59 321.44,-271.77 589.9,-430.23 65.21,-38.42 127.8,-70.94 183.85,-93.02 72.16,-28.81 133.88,-40.28 175.61,-24.52 181.36,69.9 -46.83,432.2 -115.33,536.53 47.23,-58.72 163.15,-184.02 246.38,-94.3 105.95,114.12 -155.8,434.69 -91.98,410.58 239.6,-91.17 345.14,-50.08 370.24,146.4 24.75,196.08 -392.96,608.92 -392.96,608.92 245.57,-77.73 548.58,46.19 605.2,184.83l4.29 36.98z"/>
    <path class="fil53" d="M65252.32 29021.02c-321.27,390.12 -760.42,1300.42 -898.89,1598.5 -53.32,-5.74 -102,-10.02 -141.47,-11.24 -75.87,-5.1 -122.64,-4.29 -124.73,-3.65 -5.74,4.29 -263.94,-19.88 -451.85,463.09 -188.94,482.74 -319.81,1429.84 -319.81,1429.84 0,0 -1227.4,-1200.44 -1195.06,-1495.05 31.24,-286.08 353.49,-12.69 372.5,4.29 -11.82,-21.27 -239.83,-400.55 -184.83,-519.77 57.85,-123.11 377.43,24.11 377.43,24.11 0,0 -311.59,-613.55 -131.04,-729.12 179.73,-113.89 368.04,213.69 368.04,213.69 0,0 -24.75,-933.6 434.05,-966.93 457.82,-32.28 499.14,377.43 499.14,377.43 0,0 401.94,-581.09 556.93,-532.23 151.33,48.1 69.55,644.9 65.84,670.29 19.01,-15.59 321.44,-271.77 589.9,-430.23 65.21,-38.42 127.8,-70.94 183.85,-93.02z"/>
    <path class="fil13" d="M65750.18 33101.32c-59.52,176.48 -366.24,417.77 -695.21,525.28 -91.98,29.85 -185.64,50.31 -276.81,55.23 -217.99,11.42 -463.73,29.04 -675.98,20.64 -19.82,-0.81 -39.7,-2.26 -59.52,-3.71 -165.01,-10.61 -305.27,-39.41 -388.27,-104.85 -196.71,-152.14 -273.16,-512.41 -338.82,-1096.35 0,0 71,-969.77 142.11,-1335.6 71.75,-366.18 299.76,-501.34 526.9,-553.68 62.37,-14.09 106.76,-21.45 139.45,-22.66 87.93,-5.74 87.93,22.66 87.93,22.66 42.31,2.03 93.25,5.5 149.88,11.24 245.74,26.78 589.67,95.52 758.8,269.92 167.61,171.32 357.6,756.53 358.99,761.63 152.14,542.85 323.7,1291.21 270.55,1450.25z"/>
    <path class="fil53" d="M66053.77 30826.03c-13.85,182.8 -432.2,687.04 -573.73,825.85l-0.58 -0.81c-1.22,-3.71 -117.77,-363.34 -248.82,-601.55 243.72,-46.6 620.1,-127.8 823.13,-223.49z"/>
    <path class="fil14" d="M64042.66 33698.76c-165.01,-10.61 -305.27,-39.41 -388.27,-104.85 -196.71,-152.14 -273.16,-512.41 -338.82,-1096.35 0,0 71,-969.77 142.11,-1335.6 71.75,-366.18 299.76,-501.34 526.9,-553.68 62.37,-14.09 106.76,-21.45 139.45,-22.66l87.93 22.66c42.31,2.03 93.25,5.5 149.88,11.24 -286.43,491.32 -688.67,1561.53 -718.69,1863.32 -26.6,270.26 151.1,927.86 399.51,1215.92z"/>
    <path class="fil54" d="M63120.53 38650.53c-7.18,39.7 -14.54,82.01 -22.48,126.75 -55.64,322.66 -128.44,756.54 -199.38,1204.74l-7.77 4.92c0,0 -150.87,-1114.78 -204.07,-1734.3 -52.74,-619.35 -442.23,-1150.31 -645.49,-1584.19 -203.84,-433.24 -707.62,-1512.84 -717.07,-2725.51 -9.15,-1211.69 525.11,-2309.08 525.11,-2309.08 72.97,184.02 177.88,325.15 297.5,433.3 420.55,382.12 1017.99,357.61 1017.99,357.61 -336.33,489.05 -380.26,1916.87 -380.26,1916.87 74.59,-48.86 151.67,-92.04 228.76,-132.5 88.33,234.51 317.79,860.17 345.95,1601.35 35.59,920.09 -114.46,2141.4 -238.79,2840.04z"/>
    <path class="fil54" d="M69576.74 32428.82c0,0 -297.91,780.07 -642.82,1204.97 -344.56,424.66 -952.03,1111.24 -1344.99,1521.82 -311.41,325.73 -681.48,778.79 -744.48,1061.81 -50.89,227.37 -327.12,1164.62 -434.06,1527.73 0,0 -363.11,-1439.23 -515.25,-1793.13l183.38 -1824.89c75.06,33.15 121.66,55.24 135.39,55.24 26.78,0 228.36,-177.7 479.84,-405.66 383.4,-348.21 883.12,-814.84 1054.85,-947.91 282.79,-221.46 908.05,-722.81 908.05,-722.81 48.68,88.56 117.36,154.4 195.26,203.26 295.65,185.41 724.83,119.57 724.83,119.57z"/>
    <polygon class="fil55" points="65393.39,29061.47 65388.87,29068.02 "/>
    <path class="fil13" d="M70390.95 28754.99c-35.42,24.17 -35.42,1262.8 -164.84,2017.49 -129.83,755.31 -649.37,1656.34 -649.37,1656.34 -323.47,71.58 -551.42,-4.69 -698.63,-100.38 -154.41,-100.39 -221.46,-222.45 -221.46,-222.45 0,0 47,-424.49 295.06,-1451.11 247.6,-1026.4 849.56,-2052.79 849.56,-2052.79 -118.23,-377.89 -121.07,-1052.01 -94.29,-1085.91l9.38 -10.03c127.22,-127.22 273.8,482.1 273.8,482.1 0,0 294.43,-861.38 435.91,-766.51 141.94,94.01 -152.9,518.91 -176.83,554.26l0 0.64c21.27,-24.75 335.52,-445.93 413.42,-402.17 72.16,41.9 -219.61,502.15 -315.47,637.31 100.15,-121.25 425.24,-495.6 492.36,-495.6 80.1,0 -307.13,679.62 -329.85,718.68 26.2,-29.26 426.35,-477.23 482.74,-329.43 59.7,153.76 -566.37,826.26 -601.49,849.56z"/>
    <path class="fil52" d="M63765.85 31247.62c215.66,-36.57 565.1,-48.86 499.26,-114.47 -65.21,-65.43 -171.74,-130.87 -400.96,-98.12 -229.17,32.69 -351.87,261.91 -351.87,261.91 0,0 98.99,-22.71 253.57,-49.32z"/>
    <path class="fil52" d="M64739.9 31097.8c-80.79,-14.32 -137.59,-190.8 171.97,-183.85 309.56,6.78 413.01,224.94 413.01,224.94 0,0 -470.51,-20.86 -584.98,-41.09z"/>
    <path class="fil56" d="M64307.65 32517.38l-16.98 -12.86 15.12 -19.25 -0.17 -2.43 10.84 -2.67 0.4 1.05c30.66,-10.67 94.48,-26.84 224.88,-60.34 193.64,-49.67 292.23,-47.06 341.67,-34.54 -144.55,-377.49 -371.28,-1004.37 -339.58,-1152.98l21.04 -13.73 13.5 21.09c-21.91,102.82 107.98,535.25 347.58,1157.04l6.38 17.21 -8 21.62 -22.32 -4.46c-0.4,0 -57.84,-52.17 -351.46,23.12 -150.46,38.6 -205.87,53.15 -225.92,58.42l0.23 1.05 -17.21 2.66z"/>
    <path class="fil23" d="M64189.06 31651.88c0,125.31 -45.38,226.74 -102.24,226.74 -56.22,0 -102,-101.43 -102,-226.74 0,-125.36 45.78,-226.73 102,-226.73 56.86,0 102.24,101.37 102.24,226.73z"/>
    <path class="fil23" d="M65095.25 31550.86c0,115.75 -42.31,209.99 -94.65,209.99 -52.33,0 -94.7,-94.24 -94.7,-209.99 0,-115.92 42.37,-209.75 94.7,-209.75 52.34,0 94.65,93.83 94.65,209.75z"/>
    <path class="fil13" d="M65719.06 27398.58l-8.75 11.47c-112.27,146.58 -604.4,448.78 -604.4,448.78 0,0 -27.82,88.33 -74.24,231.25l0 0.81c-114.93,349.03 -341.84,1023.15 -551.42,1525.54 -294.66,707.85 -1315.38,2808.34 -1315.38,2808.34 -564.28,31.06 -903.92,-186.28 -1097.33,-401.6 -167.68,-187.5 -223.72,-372.91 -218.16,-389.31 11.42,-35.36 495.61,-1073.8 1073.23,-1899.25 578.42,-826.03 1439.87,-1817.07 1439.87,-1817.07 -224.54,-694.58 -76.28,-1490.18 71.75,-1533.94l46.02 12.06c47.23,40.28 59.87,172.6 55.99,287.3 40.1,-135.8 108.55,-295.07 180.13,-290.14 119.22,7.76 89.38,502.56 83.64,581.9 11.24,-72.79 82.18,-482.16 211.03,-449.64 141.47,35.41 0,661.25 12.05,838.14 11.82,177.07 271.13,23.47 271.13,23.47 353.72,-259.82 424.84,11.89 424.84,11.89z"/>
    <path class="fil52" d="M64537.69 32500.4c-308.11,43.99 -657.14,311.01 -804.59,474.8 0,0 706.87,-74.42 1055.9,-122.93 393.36,-54.54 614.18,-98.94 614.18,-98.94 0,0 -177.7,-351.46 -865.49,-252.93z"/>
    <path class="fil14" d="M64500.65 28041.4c-61.49,96.96 -1043.55,1194.3 -1530.63,2052.84 -353.09,623 -724.61,1496.5 -902.48,1928.93 -167.68,-187.5 -223.72,-372.91 -218.16,-389.31 11.42,-35.36 495.61,-1073.8 1073.23,-1899.25 578.42,-826.03 1439.87,-1817.07 1439.87,-1817.07 -224.54,-694.58 -76.28,-1490.18 71.75,-1533.94 -47.64,221.46 -126.18,678.82 -48.45,958.93 106.12,380.33 177.23,601.96 114.87,698.87z"/>
    <path class="fil14" d="M65710.31 27410.05c-112.27,146.58 -604.4,448.78 -604.4,448.78 0,0 -27.82,88.33 -74.24,231.25 19.65,-187.49 38.83,-370.7 42.95,-384.79 6.55,-23.29 404.43,-158.69 635.69,-295.24z"/>
    <path class="fil14" d="M69973.99 28660.75c0,0 -509.11,929.31 -676.73,1778.23 -108.2,548 -290.14,1416.57 -419.15,1889.46 -154.41,-100.39 -221.46,-222.45 -221.46,-222.45 0,0 47,-424.49 295.06,-1451.11 247.6,-1026.4 849.56,-2052.79 849.56,-2052.79 -118.23,-377.89 -121.07,-1052.01 -94.29,-1085.91l9.38 -10.03c35.19,305.85 137.83,936.61 257.63,1154.6z"/>
    <path class="fil57" d="M63098.05 38777.28c-55.64,322.66 -128.44,756.54 -199.38,1204.74l-7.77 4.92c0,0 -150.87,-1114.78 -204.07,-1734.3 -52.74,-619.35 -442.23,-1150.31 -645.49,-1584.19 -203.84,-433.24 -707.62,-1512.84 -717.07,-2725.51 -9.15,-1211.69 525.11,-2309.08 525.11,-2309.08 72.97,184.02 177.88,325.15 297.5,433.3 -291.59,783.49 -461.52,1850.39 -427.73,2457.05 35.53,637.14 708.02,2052.84 1003.27,2843.52 173.99,465.99 300.57,1027.2 375.63,1409.55z"/>
    <path class="fil57" d="M68851.91 32309.25c-314.25,367.4 -1463.98,1092.47 -2158.16,1467.46 383.4,-348.21 883.12,-814.84 1054.85,-947.91 282.79,-221.46 908.05,-722.81 908.05,-722.81 48.68,88.56 117.36,154.4 195.26,203.26z"/>
    <path class="fil54" d="M65503.57 33916.97c-2.67,71.35 -5.51,161.94 -10.61,264.76 -21.27,522.21 -65.03,1359.71 -128.2,1628.76l-1497.72 341.9c0,0 -216.53,-1178.77 -376.61,-1856.77 -23.36,-101.2 -45.85,-191.15 -66.48,-264.18 300.75,-108.15 574.37,-164.2 734.86,-191.78 520.76,-89.14 987.96,-21.27 1344.76,77.31z"/>
    <path class="fil57" d="M65745.9 33993.42c-60.75,59.29 -143.57,125.95 -252.94,188.31 -203.84,118.18 -499.72,224.3 -918.88,248.41 -471.9,26.78 -831.76,-46.83 -1083.65,-134.52 -150.12,-51.7 -261.92,-109.78 -336.16,-154.35 90.59,-41.73 181.18,-77.95 269.68,-109.83 300.75,-108.15 574.37,-164.2 734.86,-191.78 520.76,-89.14 987.96,-21.27 1344.76,77.31 87.92,23.88 168.49,50.08 242.33,76.45z"/>
    <path class="fil13" d="M65133.68 33461.82c-14.49,64.16 -34.72,158.46 -62.37,264.59 -98.7,386.64 -280.29,947.27 -497.23,939.51 -256,-8.58 -355.98,-501.35 -426.75,-886.37 -15.53,-86.3 -29.61,-167.27 -44.16,-235.77 229.86,9.21 494.85,-9.8 730.8,-21.85 98.36,-5.74 199.55,-27.59 299.71,-60.11z"/>
    <path class="fil14" d="M65133.68 33461.82c-14.49,64.16 -34.72,158.46 -62.37,264.59 -338.59,110.99 -712.72,83.63 -923.98,53.14 -15.53,-86.3 -29.61,-167.27 -44.16,-235.77 229.86,9.21 494.85,-9.8 730.8,-21.85 98.36,-5.74 199.55,-27.59 299.71,-60.11z"/>
    <path class="fil58" d="M69505.97 41036.87c-74.99,225.11 -200.77,638.53 -347.58,1128.22 -428.37,1433.5 -1029.29,3528.88 -1029.29,3528.88l-273.16 133.14 -24.74 11.82c0,0 -389.31,-849.33 -436.9,-1946.49 -36.8,-844.63 137.36,-1760.03 219.38,-2135.84 24.34,-112.5 40.45,-176.89 40.45,-176.89 -59.29,16.98 -123.68,35.59 -191.78,55.23 -877.15,253.92 -2380.6,711.51 -2380.6,711.51 0,0 -442.87,1472.15 -809.05,2803.06 -161.3,585.96 -307.94,1145.38 -394.24,1538.98 -75,338.19 -193.99,911.11 -329.15,1572.13l-0.63 2.26c-7.77,41.1 -16.35,82.02 -24.93,123.11 -376.61,1840.6 -860.22,4272.09 -860.22,4272.09 -44.34,79.98 -209.58,86.3 -287.88,84.27 -25.56,0 -42.72,-1.45 -42.72,-1.45 0,0 -813.8,-2985 -672.49,-3940.85 60.33,-408.32 183.38,-755.96 304.45,-1020.54 161.94,-354.71 320.81,-560 320.81,-560 19.82,-239.43 47.23,-645.08 77.89,-1135.59 96.91,-1543.15 232.07,-3917.38 305.68,-4521.77 48.28,-398.7 130.87,-951.63 215.89,-1493.25l0 -0.41 8 -53.15 5.51 -33.32c12.05,-76.45 23.94,-152.32 36.22,-227.38l8.35 -52.33c63.81,-392.79 125.36,-756.71 171.96,-1024.19l0 -0.58 5.33 -27.01c124.33,-698.64 274.38,-1919.95 238.79,-2840.04 -28.16,-741.18 -257.62,-1366.84 -345.95,-1601.35 46.83,-23.93 94.07,-46.65 140.9,-67.87 90.59,-41.73 181.18,-77.95 269.68,-109.83 20.63,73.03 43.12,162.98 66.48,264.18 160.08,678 376.61,1856.77 376.61,1856.77l1497.72 -341.9c63.17,-269.05 106.93,-1106.55 128.2,-1628.76 5.1,-102.82 7.94,-193.41 10.61,-264.76 87.92,23.88 168.49,50.08 242.33,76.45 140.02,48.86 252.7,98.36 332.62,133.71l-183.38 1824.89c152.14,353.9 515.25,1793.13 515.25,1793.13l0 0.64c-84.67,289.51 -235.77,1399.53 -303.64,1915.66 -2.67,22.48 -5.51,43.7 -7.94,63.58 -3.31,26.95 -6.78,51.7 -9.04,73.61 -3.25,24.74 -6.55,46.19 -8.35,63.75 -5.74,42.54 -8.64,65.84 -8.64,65.84 649.03,-253.51 1498.35,-447.38 2236.29,-566.95 843.59,-136.61 1540.43,-175.68 1621.63,-94.3 153.53,153.76 -129.43,884.97 -424.73,1769.89z"/>
    <path class="fil59" d="M62332.93 52740.67c0,0 -330.19,424.72 -365.78,542.67l991.22 0c0,0 -252.7,-470.46 -315.07,-600.92l-310.37 58.25z"/>
    <path class="fil59" d="M67831.02 45838.76l105.89 283.18 1286.11 0c0,0 -365.61,-979.21 -1392,-283.18z"/>
    <path class="fil36" d="M64272.7 45149.51c-161.3,585.96 -307.94,1145.38 -394.24,1538.98 -79.52,359.69 -208.94,984.08 -354.71,1697.5 -298.14,231.43 -719.96,547.13 -809.68,547.13 -104.73,0 -532.47,-757.35 -749.18,-1153.61 161.94,-354.71 320.81,-560 320.81,-560 19.82,-239.43 47.23,-645.08 77.89,-1135.59 193.82,-70.13 630.59,-242.09 1173.03,-540 321.21,-176.89 564.75,-305.1 736.08,-394.41z"/>
    <path class="fil36" d="M69505.97 41036.87c-74.99,225.11 -200.77,638.53 -347.58,1128.22 -679.45,-351.86 -1310.21,-402.81 -1544.71,-408.49 24.34,-112.5 40.45,-176.89 40.45,-176.89 -59.29,16.98 -123.68,35.59 -191.78,55.23 231.48,-843.88 638.35,-1805.88 846.72,-2273.66 843.59,-136.61 1540.43,-175.68 1621.63,-94.3 153.53,153.76 -129.43,884.97 -424.73,1769.89z"/>
    <path class="fil11" d="M63443.19 39830.51l52.34 9.22 -3.71 53.15 -52.34 -8.58c-225.11,-40.28 -393.6,-87.75 -504.59,-129.66l8.35 -52.33c104.09,39.06 271.13,87.11 499.95,128.2z"/>
    <path class="fil11" d="M65317.29 39864.48l-3.48 55.17 -53.55 7.19c-185.64,23.47 -398.7,38.83 -641.43,42.31 -38.43,0.81 -76.22,0.81 -114.06,0.81 -298.55,0 -558.38,-16.98 -780.07,-43.99l-52.34 -6.32 8 -53.15 52.74 6.32c246.38,29.85 542.44,48.46 884.92,43.36 245.16,-3.48 459.67,-19.83 645.54,-43.94 18.61,-2.08 36.17,-4.92 53.73,-7.76z"/>
    <path class="fil11" d="M66106.75 39661.45c-2.67,22.48 -5.51,43.7 -7.94,63.58 -134.99,54.59 -336.16,119.8 -615.7,168.48l-53.15 9.16 0 -55.18 53.15 -9.21c290.14,-52.34 493.58,-121.02 623.64,-176.83z"/>
    <path class="fil11" d="M63471.19 40178.73l-3.25 52.34 -52.4 -11.25 0 -0.81c-226.5,-51.52 -410.75,-108.79 -530.38,-150.11l0 -0.41 8 -53.15c116.73,41.1 299.13,98.13 526.73,150.7l0 0.63 51.3 12.06z"/>
    <path class="fil11" d="M65241.65 40204.46c18.61,-5.1 37.04,-10.2 54.6,-15.7l-4.11 55.81 -53.96 14.9c-198.11,51.75 -428.15,87.75 -688.03,89.95l-37.62 0.64c-301.38,0 -588.63,-33.1 -840.98,-77.9l-52.34 -10.03 8.58 -51.52 51.76 9.21 0.81 0c259.07,47.41 556.75,80.74 868.98,77.09 262.72,-2.03 493.98,-39.47 692.31,-92.45z"/>
    <path class="fil11" d="M66089.77 39798.64l-8.35 63.75c-65.26,51.53 -271.13,201 -598.31,320.63l-53.15 18.37 0 -55.18 53.15 -19.01c377.25,-140.89 581.91,-320.22 585.38,-322.88l21.28 -5.68z"/>
    <path class="fil11" d="M63672.36 39919.65l-44.57 290.96 -8.58 51.52 -33.9 223.09 -132.96 -32.52 15.59 -221.63 3.25 -52.34 20.63 -285.85 3.71 -53.15 3.24 -46.66 192.83 0 -11.24 73.43 -8 53.15zm69.96 -170.51l-20.46 -9.22 -247.83 0 -26.14 24.11 -4.7 66.48 -3.71 53.79 -19.59 281.74 0 0.63 -4.35 52.34 0 0.81 -17.96 252.12 19.82 27.59 183.44 43.76 6.55 1.45 14.72 -4.93 11.42 -17.79 38.02 -249.86 8 -52.34 0.81 0 44.34 -293.85 8.4 -53.15 15.53 -102.64 -6.31 -21.04z"/>
    <path class="fil11" d="M65429.96 40363.56l-147.79 32.51 9.97 -151.5 4.11 -55.81 17.56 -269.11 3.48 -55.17 5.16 -71.41 107.51 0 0 570.49zm26.37 -623.64l-158.63 0 -27.24 24.75 -6.9 107.57 -3.3 54.6 -18.61 277.62 -3.47 55.01 -11.02 167.67 8.35 21.91 17.62 6.49 5.68 0 203.03 -44.57 21.27 -26.14 0 -618.94 -26.78 -25.97zm-196.07 186.92l-18.61 277.62c18.61,-5.1 37.04,-10.2 54.6,-15.7l17.56 -269.11 -53.55 7.19z"/>
    <path class="fil22" d="M64278.61 32915.04c169.7,-19.59 169.7,-19.59 740.19,-96.27 0,0 -23.94,341.44 -359.69,374.36 -335.52,32.74 -380.5,-278.09 -380.5,-278.09z"/>
    <path class="fil60" d="M63098.05 41036.87c0,0 -246.21,1758.41 -399.11,3220.71 -153.59,1463.17 -259.71,3374.54 -259.71,3374.54 0,0 -472.08,908.21 -472.08,2029.54 0,988.14 330.2,2692.77 408.5,3080.69 -25.56,0 -42.72,-1.45 -42.72,-1.45 0,0 -813.8,-2985 -672.49,-3940.85 60.33,-408.32 183.38,-755.96 304.45,-1020.54 161.94,-354.71 320.81,-560 320.81,-560 19.82,-239.43 47.23,-645.08 77.89,-1135.59 96.91,-1543.15 232.07,-3917.38 305.68,-4521.77 48.28,-398.7 130.87,-951.63 215.89,-1493.25l0 -0.41 8 -53.15 5.51 -33.32c12.05,-76.45 23.94,-152.32 36.22,-227.38l8.35 -52.33c63.81,-392.79 125.36,-756.71 171.96,-1024.19 31.94,460.71 28.46,1875.2 -17.15,2358.75z"/>
    <path class="fil60" d="M67855.94 45827.11l-24.74 11.82c0,0 -389.31,-849.33 -436.9,-1946.49 -36.8,-844.63 137.36,-1760.03 219.38,-2135.84 24.34,-112.5 40.45,-176.89 40.45,-176.89 -59.29,16.98 -123.68,35.59 -191.78,55.23 -877.15,253.92 -2380.6,711.51 -2380.6,711.51 0,0 -442.87,1472.15 -809.05,2803.06 -161.3,585.96 -307.94,1145.38 -394.24,1538.98 -75,338.19 -193.99,911.11 -329.15,1572.13 76.45,-943.57 183.39,-1900.7 329.15,-2575.22 401.37,-1852.48 955.51,-3520.31 955.51,-3520.31 873.44,-169.87 3315.83,-1210.41 3315.83,-1210.41 0,0 -189.18,1073.23 -366.25,2375.68 -141.24,1041.34 -6.31,2074.69 72.39,2496.75z"/>
    <path class="fil61" d="M64549.74 38325.84l-32.69 13.1 32.69 -13.1zm-2464.64 15063.62c-58.48,0 -106.12,-47.41 -106.12,-106.12l6.55 -36.58c38.02,-166.63 416.89,-2596.73 817.45,-5168.07 338.59,-2173.11 722.4,-4636.07 1028.25,-6556.65 166.69,-1047.26 292.4,-1822.8 384.2,-2370.75 168.72,-1001.7 168.72,-1001.7 258.04,-1020.3 57.67,-12.06 113.71,24.92 125.36,82.41 5.28,25.33 1.22,50.49 -10.26,71.58 -93.6,318.31 -949.3,5808.87 -1575.78,9826.63 -221.46,1420.17 -423.45,2717.34 -571.88,3659.52 -74.48,471.09 -135.39,853.45 -178.51,1118.2 -21.68,132.73 -38.84,235.95 -51.36,305.91 -22.66,129.42 -33.73,194.22 -125.94,194.22z"/>
    <path class="fil61" d="M70048.87 53389.46c-58.48,0 -106.35,-47.41 -106.35,-106.12l0 -15048.49c0,-58.48 47.87,-106.12 106.35,-106.12 58.66,0 106.3,47.64 106.3,106.12l0 15048.49c0,58.71 -47.64,106.12 -106.3,106.12z"/>
    <path class="fil61" d="M66466.21 53389.46c-43.76,0 -84.68,-26.78 -99.81,-70.36 -27.59,-76.45 -841.73,-6803.39 -1324.94,-10806.43 -3.65,-30.25 5.97,-60.51 25.8,-83.17 20.45,-22.72 49.26,-35.58 79.51,-35.58l4984.87 0c50.13,0 93.66,35.18 103.92,84.44l2253.38 10783.3c11.88,57.26 -24.75,113.71 -82.42,125.54 -56.62,12.05 -113.42,-24.52 -125.54,-82.19l-2235.58 -10698.85 -4778.59 0c442.28,3666.24 1262.98,10436.12 1302.45,10651.62 13.1,52.16 -15.53,106.93 -67.47,125.53l-35.58 6.15z"/>
    <polygon class="fil62" points="63495.53,43101.77 70131.64,43101.77 70131.64,42500.04 63495.53,42500.04 "/>
    <polygon class="fil62" points="62958.37,46853.5 69974.05,46853.5 69974.05,46393.48 62958.37,46393.48 "/>
    <polygon class="fil62" points="62387.3,51224.75 70131.64,51224.75 70131.64,50764.5 62387.3,50764.5 "/>
    <polygon class="fil62" points="64350.36,38370.65 70178.7,38370.65 70178.7,37957.86 64350.36,37957.86 "/>
    <path class="fil63" d="M70574.73 26726.31c0,253.92 -643.45,475.55 -1598.33,592.92 -464.94,58.31 -1003.9,90.82 -1577.63,90.82 -1754.71,0 -3176.79,-306.54 -3176.79,-683.74 0,-378.06 1422.08,-684.55 3176.79,-684.55 425.47,0 830.95,17.56 1201.25,50.89 1158.89,102.01 1974.71,346.77 1974.71,633.66z"/>
    <path class="fil64" d="M68161.45 26708.11c0,146.81 -367.46,265.57 -820.35,265.57 -452.49,0 -819.72,-118.76 -819.72,-265.57 0,-146.4 367.23,-265.39 819.72,-265.39 452.89,0 820.35,118.99 820.35,265.39z"/>
    <path class="fil64" d="M70574.73 26312.89l0 413.42c0,-285.27 -809.68,-529.57 -1960.63,-632.21l0 -0.81c-374.35,-33.16 -785.11,-51.53 -1215.33,-51.53 -1754.71,0 -3176.79,306.49 -3176.79,684.55l0 -460.25c0,0 812.93,-460.08 3243.03,-460.08 371.75,0 701.71,12.06 995.33,31.71 1626.73,111.22 2114.39,475.2 2114.39,475.2z"/>
    <path class="fil65" d="M70574.73 26312.89l0 413.42c0,-285.27 -809.68,-529.57 -1960.63,-632.21l0 -0.81c-53.78,-90.59 -107.51,-181.76 -153.76,-255.6 1626.73,111.22 2114.39,475.2 2114.39,475.2z"/>
    <path class="fil66" d="M70574.73 26726.31c0,253.92 -643.45,475.55 -1598.33,592.92 -38.6,-414 -280.28,-1003.73 -376.38,-1226.58 1158.89,102.01 1974.71,346.77 1974.71,633.66z"/>
   </g>
  </g>
 </g>
</svg>
